<svg width="1256" height="352" fill="none" xmlns="http://www.w3.org/2000/svg"><path fill="#F3EFF5" d="M64 64h282v112H64z"/><path stroke="#C3B2CB" stroke-dasharray="2 2" d="M64 64h282v112H64z"/><path fill="#F3EFF5" d="M346 64h282v112H346z"/><path stroke="#C3B2CB" stroke-dasharray="2 2" d="M346 64h282v112H346z"/><path fill="#F3EFF5" d="M628 64h282v112H628z"/><path stroke="#C3B2CB" stroke-dasharray="2 2" d="M628 64h282v112H628z"/><path fill="#F3EFF5" d="M910 64h282v112H910z"/><path stroke="#C3B2CB" stroke-dasharray="2 2" d="M910 64h282v112H910z"/><path fill="#F3EFF5" d="M64 176h282v112H64z"/><path stroke="#C3B2CB" stroke-dasharray="2 2" d="M64 176h282v112H64z"/><path fill="#F3EFF5" d="M346 176h282v112H346z"/><path stroke="#C3B2CB" stroke-dasharray="2 2" d="M346 176h282v112H346z"/><path fill="#F3EFF5" d="M628 176h282v112H628z"/><path stroke="#C3B2CB" stroke-dasharray="2 2" d="M628 176h282v112H628z"/><path fill="#F3EFF5" d="M910 176h282v112H910z"/><path stroke="#C3B2CB" stroke-dasharray="2 2" d="M910 176h282v112H910z"/><path d="M64 64V0" stroke="url(#a)" stroke-dasharray="2 2"/><path d="M64 64H0" stroke="url(#b)" stroke-dasharray="2 2"/><path d="M64 288H0" stroke="url(#c)" stroke-dasharray="2 2"/><path d="M1256 64h-64" stroke="url(#d)" stroke-dasharray="2 2"/><path d="M1256 288h-64" stroke="url(#e)" stroke-dasharray="2 2"/><path d="M64 352v-64" stroke="url(#f)" stroke-dasharray="2 2"/><path d="M1192 64V0" stroke="url(#g)" stroke-dasharray="2 2"/><path d="M1192 352v-64" stroke="url(#h)" stroke-dasharray="2 2"/><defs><linearGradient id="a" x1="64.5" y1="0" x2="64.5" y2="64" gradientUnits="userSpaceOnUse"><stop stop-color="#C3B2CB" stop-opacity="0"/><stop offset=".5" stop-color="#C3B2CB"/></linearGradient><linearGradient id="b" x1="0" y1="63.5" x2="64" y2="63.5" gradientUnits="userSpaceOnUse"><stop stop-color="#C3B2CB" stop-opacity="0"/><stop offset=".5" stop-color="#C3B2CB"/></linearGradient><linearGradient id="c" x1="0" y1="287.5" x2="64" y2="287.5" gradientUnits="userSpaceOnUse"><stop stop-color="#C3B2CB" stop-opacity="0"/><stop offset=".5" stop-color="#C3B2CB"/></linearGradient><linearGradient id="d" x1="1256" y1="63.5" x2="1192" y2="63.5" gradientUnits="userSpaceOnUse"><stop stop-color="#C3B2CB" stop-opacity="0"/><stop offset=".5" stop-color="#C3B2CB"/></linearGradient><linearGradient id="e" x1="1256" y1="287.5" x2="1192" y2="287.5" gradientUnits="userSpaceOnUse"><stop stop-color="#C3B2CB" stop-opacity="0"/><stop offset=".5" stop-color="#C3B2CB"/></linearGradient><linearGradient id="f" x1="64.5" y1="352" x2="64.5" y2="288" gradientUnits="userSpaceOnUse"><stop stop-color="#C3B2CB" stop-opacity="0"/><stop offset=".5" stop-color="#C3B2CB"/></linearGradient><linearGradient id="g" x1="1192.5" y1="0" x2="1192.5" y2="64" gradientUnits="userSpaceOnUse"><stop stop-color="#C3B2CB" stop-opacity="0"/><stop offset=".5" stop-color="#C3B2CB"/></linearGradient><linearGradient id="h" x1="1192.5" y1="352" x2="1192.5" y2="288" gradientUnits="userSpaceOnUse"><stop stop-color="#C3B2CB" stop-opacity="0"/><stop offset=".5" stop-color="#C3B2CB"/></linearGradient></defs></svg>