<svg width="375" height="160" fill="none" xmlns="http://www.w3.org/2000/svg"><path fill="#F3EFF5" d="M16 32h85.75v48H16z"/><path stroke="#C3B2CB" stroke-dasharray="2 2" d="M16 32h85.75v48H16z"/><path fill="#F3EFF5" d="M101.75 32h85.75v48h-85.75z"/><path stroke="#C3B2CB" stroke-dasharray="2 2" d="M101.75 32h85.75v48h-85.75z"/><path fill="#F3EFF5" d="M187.5 32h85.75v48H187.5z"/><path stroke="#C3B2CB" stroke-dasharray="2 2" d="M187.5 32h85.75v48H187.5z"/><path fill="#F3EFF5" d="M273.25 32H359v48h-85.75z"/><path stroke="#C3B2CB" stroke-dasharray="2 2" d="M273.25 32H359v48h-85.75z"/><path fill="#F3EFF5" d="M16 80h85.75v48H16z"/><path stroke="#C3B2CB" stroke-dasharray="2 2" d="M16 80h85.75v48H16z"/><path fill="#F3EFF5" d="M101.75 80h85.75v48h-85.75z"/><path stroke="#C3B2CB" stroke-dasharray="2 2" d="M101.75 80h85.75v48h-85.75z"/><path fill="#F3EFF5" d="M187.5 80h85.75v48H187.5z"/><path stroke="#C3B2CB" stroke-dasharray="2 2" d="M187.5 80h85.75v48H187.5z"/><path fill="#F3EFF5" d="M273.25 80H359v48h-85.75z"/><path stroke="#C3B2CB" stroke-dasharray="2 2" d="M273.25 80H359v48h-85.75z"/><path d="M16 32V0" stroke="url(#a)" stroke-dasharray="2 2"/><path d="M16 32h-32" stroke="url(#b)" stroke-dasharray="2 2"/><path d="M16 128h-32" stroke="url(#c)" stroke-dasharray="2 2"/><path d="M391 32h-32" stroke="url(#d)" stroke-dasharray="2 2"/><path d="M391 128h-32" stroke="url(#e)" stroke-dasharray="2 2"/><path d="M16 160v-32" stroke="url(#f)" stroke-dasharray="2 2"/><path d="M359 32V0" stroke="url(#g)" stroke-dasharray="2 2"/><path d="M359 160v-32" stroke="url(#h)" stroke-dasharray="2 2"/><defs><linearGradient id="a" x1="16.5" y1="0" x2="16.5" y2="32" gradientUnits="userSpaceOnUse"><stop stop-color="#C3B2CB" stop-opacity="0"/><stop offset=".5" stop-color="#C3B2CB"/></linearGradient><linearGradient id="b" x1="-16" y1="31.5" x2="16" y2="31.5" gradientUnits="userSpaceOnUse"><stop stop-color="#C3B2CB" stop-opacity="0"/><stop offset=".5" stop-color="#C3B2CB"/></linearGradient><linearGradient id="c" x1="-16" y1="127.5" x2="16" y2="127.5" gradientUnits="userSpaceOnUse"><stop stop-color="#C3B2CB" stop-opacity="0"/><stop offset=".5" stop-color="#C3B2CB"/></linearGradient><linearGradient id="d" x1="391" y1="31.5" x2="359" y2="31.5" gradientUnits="userSpaceOnUse"><stop stop-color="#C3B2CB" stop-opacity="0"/><stop offset=".5" stop-color="#C3B2CB"/></linearGradient><linearGradient id="e" x1="391" y1="127.5" x2="359" y2="127.5" gradientUnits="userSpaceOnUse"><stop stop-color="#C3B2CB" stop-opacity="0"/><stop offset=".5" stop-color="#C3B2CB"/></linearGradient><linearGradient id="f" x1="16.5" y1="160" x2="16.5" y2="128" gradientUnits="userSpaceOnUse"><stop stop-color="#C3B2CB" stop-opacity="0"/><stop offset=".5" stop-color="#C3B2CB"/></linearGradient><linearGradient id="g" x1="359.5" y1="0" x2="359.5" y2="32" gradientUnits="userSpaceOnUse"><stop stop-color="#C3B2CB" stop-opacity="0"/><stop offset=".5" stop-color="#C3B2CB"/></linearGradient><linearGradient id="h" x1="359.5" y1="160" x2="359.5" y2="128" gradientUnits="userSpaceOnUse"><stop stop-color="#C3B2CB" stop-opacity="0"/><stop offset=".5" stop-color="#C3B2CB"/></linearGradient></defs></svg>