<svg width="848" height="352" fill="none" xmlns="http://www.w3.org/2000/svg"><path fill="#F3EFF5" d="M64 64h180v112H64z"/><path stroke="#C3B2CB" stroke-dasharray="2 2" d="M64 64h180v112H64z"/><path fill="#F3EFF5" d="M244 64h180v112H244z"/><path stroke="#C3B2CB" stroke-dasharray="2 2" d="M244 64h180v112H244z"/><path fill="#F3EFF5" d="M424 64h180v112H424z"/><path stroke="#C3B2CB" stroke-dasharray="2 2" d="M424 64h180v112H424z"/><path fill="#F3EFF5" d="M604 64h180v112H604z"/><path stroke="#C3B2CB" stroke-dasharray="2 2" d="M604 64h180v112H604z"/><path fill="#F3EFF5" d="M64 176h180v112H64z"/><path stroke="#C3B2CB" stroke-dasharray="2 2" d="M64 176h180v112H64z"/><path fill="#F3EFF5" d="M244 176h180v112H244z"/><path stroke="#C3B2CB" stroke-dasharray="2 2" d="M244 176h180v112H244z"/><path fill="#F3EFF5" d="M424 176h180v112H424z"/><path stroke="#C3B2CB" stroke-dasharray="2 2" d="M424 176h180v112H424z"/><path fill="#F3EFF5" d="M604 176h180v112H604z"/><path stroke="#C3B2CB" stroke-dasharray="2 2" d="M604 176h180v112H604z"/><path d="M64 64V0" stroke="url(#a)" stroke-dasharray="2 2"/><path d="M64 64H0" stroke="url(#b)" stroke-dasharray="2 2"/><path d="M64 288H0" stroke="url(#c)" stroke-dasharray="2 2"/><path d="M848 64h-64" stroke="url(#d)" stroke-dasharray="2 2"/><path d="M848 288h-64" stroke="url(#e)" stroke-dasharray="2 2"/><path d="M64 352v-64" stroke="url(#f)" stroke-dasharray="2 2"/><path d="M784 64V0" stroke="url(#g)" stroke-dasharray="2 2"/><path d="M784 352v-64" stroke="url(#h)" stroke-dasharray="2 2"/><defs><linearGradient id="a" x1="64.5" y1="0" x2="64.5" y2="64" gradientUnits="userSpaceOnUse"><stop stop-color="#C3B2CB" stop-opacity="0"/><stop offset=".5" stop-color="#C3B2CB"/></linearGradient><linearGradient id="b" x1="0" y1="63.5" x2="64" y2="63.5" gradientUnits="userSpaceOnUse"><stop stop-color="#C3B2CB" stop-opacity="0"/><stop offset=".5" stop-color="#C3B2CB"/></linearGradient><linearGradient id="c" x1="0" y1="287.5" x2="64" y2="287.5" gradientUnits="userSpaceOnUse"><stop stop-color="#C3B2CB" stop-opacity="0"/><stop offset=".5" stop-color="#C3B2CB"/></linearGradient><linearGradient id="d" x1="848" y1="63.5" x2="784" y2="63.5" gradientUnits="userSpaceOnUse"><stop stop-color="#C3B2CB" stop-opacity="0"/><stop offset=".5" stop-color="#C3B2CB"/></linearGradient><linearGradient id="e" x1="848" y1="287.5" x2="784" y2="287.5" gradientUnits="userSpaceOnUse"><stop stop-color="#C3B2CB" stop-opacity="0"/><stop offset=".5" stop-color="#C3B2CB"/></linearGradient><linearGradient id="f" x1="64.5" y1="352" x2="64.5" y2="288" gradientUnits="userSpaceOnUse"><stop stop-color="#C3B2CB" stop-opacity="0"/><stop offset=".5" stop-color="#C3B2CB"/></linearGradient><linearGradient id="g" x1="784.5" y1="0" x2="784.5" y2="64" gradientUnits="userSpaceOnUse"><stop stop-color="#C3B2CB" stop-opacity="0"/><stop offset=".5" stop-color="#C3B2CB"/></linearGradient><linearGradient id="h" x1="784.5" y1="352" x2="784.5" y2="288" gradientUnits="userSpaceOnUse"><stop stop-color="#C3B2CB" stop-opacity="0"/><stop offset=".5" stop-color="#C3B2CB"/></linearGradient></defs></svg>