<svg width="89" height="40" fill="none" xmlns="http://www.w3.org/2000/svg"><path d="M.342 31.4V15.032h2.706v2.376l-.264-.594a4.129 4.129 0 0 1 1.672-1.496c.704-.367 1.518-.55 2.442-.55 1.13 0 2.149.279 3.058.836a6.088 6.088 0 0 1 2.156 2.244c.543.939.814 1.995.814 3.168 0 1.159-.264 2.215-.792 3.168a6.04 6.04 0 0 1-2.156 2.266c-.91.543-1.943.814-3.102.814a5.669 5.669 0 0 1-2.398-.506 4.252 4.252 0 0 1-1.716-1.496l.462-.572v6.71H.342Zm6.204-6.776c.66 0 1.247-.154 1.76-.462.513-.308.91-.733 1.188-1.276.293-.543.44-1.166.44-1.87 0-.704-.147-1.32-.44-1.848a3.117 3.117 0 0 0-1.188-1.276c-.513-.323-1.1-.484-1.76-.484-.63 0-1.203.154-1.716.462-.499.308-.895.74-1.188 1.298-.279.543-.418 1.159-.418 1.848 0 .704.14 1.327.418 1.87.293.543.69.968 1.188 1.276a3.271 3.271 0 0 0 1.716.462ZM14.463 27V15.032h2.706v2.662l-.22-.396c.279-.895.712-1.518 1.298-1.87.602-.352 1.32-.528 2.156-.528h.704v2.552h-1.034c-.821 0-1.481.257-1.98.77-.498.499-.748 1.203-.748 2.112V27h-2.882Zm7.569 0V15.032h2.882V27h-2.882Zm0-13.31v-3.08h2.882v3.08h-2.882ZM26.915 27V15.032h2.706v2.772l-.308-.462c.22-.865.66-1.51 1.32-1.936.66-.425 1.437-.638 2.332-.638.982 0 1.848.257 2.596.77s1.232 1.188 1.452 2.024l-.814.066c.366-.953.916-1.665 1.65-2.134.733-.484 1.576-.726 2.53-.726.85 0 1.606.19 2.266.572a4.069 4.069 0 0 1 1.584 1.606c.381.675.572 1.46.572 2.354V27h-2.882v-7.018c0-.528-.096-.983-.286-1.364a2.101 2.101 0 0 0-.792-.88c-.338-.22-.748-.33-1.232-.33-.455 0-.858.11-1.21.33a2.058 2.058 0 0 0-.814.88c-.19.381-.286.836-.286 1.364V27h-2.882v-7.018c0-.528-.096-.983-.286-1.364a2.057 2.057 0 0 0-.814-.88c-.338-.22-.74-.33-1.21-.33-.455 0-.858.11-1.21.33a2.058 2.058 0 0 0-.814.88c-.19.381-.286.836-.286 1.364V27h-2.882Zm25.34.264c-1.232 0-2.31-.279-3.234-.836a5.823 5.823 0 0 1-2.156-2.266c-.513-.953-.77-2.01-.77-3.168 0-1.203.257-2.266.77-3.19a5.973 5.973 0 0 1 2.134-2.222c.91-.543 1.921-.814 3.036-.814.939 0 1.76.154 2.464.462a5.255 5.255 0 0 1 1.826 1.276c.499.543.88 1.166 1.144 1.87.264.69.396 1.437.396 2.244 0 .205-.015.418-.044.638a2.09 2.09 0 0 1-.11.572h-9.24v-2.2h7.612l-1.364 1.034c.132-.675.095-1.276-.11-1.804a2.5 2.5 0 0 0-.968-1.254c-.44-.308-.975-.462-1.606-.462a2.86 2.86 0 0 0-1.606.462c-.47.293-.829.733-1.078 1.32-.235.572-.323 1.269-.264 2.09-.059.733.037 1.386.286 1.958.264.557.645.99 1.144 1.298.513.308 1.1.462 1.76.462.66 0 1.217-.14 1.672-.418a2.99 2.99 0 0 0 1.1-1.122l2.332 1.144a4.077 4.077 0 0 1-1.1 1.518 5.475 5.475 0 0 1-1.782 1.034c-.675.25-1.423.374-2.244.374Zm17.851 0c-1.188 0-2.259-.271-3.212-.814a6.15 6.15 0 0 1-2.222-2.244c-.543-.953-.814-2.024-.814-3.212 0-1.188.271-2.251.814-3.19a5.982 5.982 0 0 1 2.222-2.222c.953-.543 2.024-.814 3.212-.814.85 0 1.643.154 2.376.462a5.56 5.56 0 0 1 1.892 1.232 4.37 4.37 0 0 1 1.166 1.848l-2.53 1.1a2.972 2.972 0 0 0-1.122-1.452c-.513-.367-1.107-.55-1.782-.55a3.16 3.16 0 0 0-1.694.462 3.22 3.22 0 0 0-1.144 1.276c-.279.543-.418 1.166-.418 1.87 0 .704.14 1.327.418 1.87.279.543.66.968 1.144 1.276a3.158 3.158 0 0 0 1.694.462c.69 0 1.29-.183 1.804-.55a3.01 3.01 0 0 0 1.1-1.474l2.53 1.144a4.916 4.916 0 0 1-1.144 1.826 5.84 5.84 0 0 1-1.892 1.254 6.4 6.4 0 0 1-2.398.44Zm12.725 0c-1.188 0-2.259-.271-3.212-.814a6.15 6.15 0 0 1-2.222-2.244c-.543-.953-.814-2.024-.814-3.212 0-1.188.271-2.251.814-3.19a5.982 5.982 0 0 1 2.222-2.222c.953-.543 2.024-.814 3.212-.814.85 0 1.642.154 2.376.462a5.56 5.56 0 0 1 1.892 1.232 4.37 4.37 0 0 1 1.166 1.848l-2.53 1.1a2.972 2.972 0 0 0-1.122-1.452c-.514-.367-1.108-.55-1.782-.55-.63 0-1.196.154-1.694.462a3.22 3.22 0 0 0-1.144 1.276c-.279.543-.418 1.166-.418 1.87 0 .704.14 1.327.418 1.87.278.543.66.968 1.144 1.276a3.157 3.157 0 0 0 1.694.462c.69 0 1.29-.183 1.804-.55a3.01 3.01 0 0 0 1.1-1.474l2.53 1.144a4.916 4.916 0 0 1-1.144 1.826 5.84 5.84 0 0 1-1.892 1.254 6.4 6.4 0 0 1-2.398.44Z" fill="#491361"/><circle cx="61" cy="25.478" r="2" fill="url(#a)"/><defs><linearGradient id="a" x1="59.831" y1="24.163" x2="62.189" y2="26.946" gradientUnits="userSpaceOnUse"><stop stop-color="#FFB931"/><stop offset="1" stop-color="#EF4E1B"/></linearGradient></defs></svg>