<svg width="32" height="32" fill="none" xmlns="http://www.w3.org/2000/svg"><path fill-rule="evenodd" clip-rule="evenodd" d="M17.262 19.521 22.027 6.43a1.303 1.303 0 0 1 1.225-.858h4.345a.652.652 0 0 1 .461 1.113l-1.494 1.494v15.643l1.494 1.495a.652.652 0 0 1-.46 1.112h-7.282a.652.652 0 0 1-.461-1.112l1.494-1.495v-11.72L16.357 25.82a.924.924 0 0 1-.87.608 1.017 1.017 0 0 1-.927-.597L8.314 12.09v9.125l2.636 4.217a.652.652 0 0 1-.553.997H4.403a.652.652 0 0 1-.521-1.042l3.128-4.172V9.482L4.642 6.64a.652.652 0 0 1 .5-1.069h4.94a1.304 1.304 0 0 1 1.186.764l5.994 13.186Z" fill="#491361"/></svg>