<svg width="18" height="18" fill="none" xmlns="http://www.w3.org/2000/svg"><g clip-path="url(#a)"><path d="M4.57 8.422c-.046-.3-.07-.609-.07-.922 0-3.314 2.704-6 6.04-6 3.335 0 6.039 2.686 6.039 6 0 .749-.138 1.465-.39 2.126-.052.137-.079.206-.09.26a.679.679 0 0 0-.018.144c-.001.055.006.115.02.236l.303 2.453c.032.265.049.398.005.495a.375.375 0 0 1-.193.188c-.098.042-.23.023-.495-.016l-2.389-.35a1.747 1.747 0 0 0-.244-.027.67.67 0 0 0-.15.016c-.055.011-.126.038-.268.091a6.062 6.062 0 0 1-3.053.315M5.724 16.5c2.223 0 4.026-1.847 4.026-4.125S7.947 8.25 5.724 8.25c-2.224 0-4.027 1.847-4.027 4.125 0 .458.073.899.208 1.31.056.174.085.261.094.32.01.063.012.097.008.16-.003.06-.018.128-.048.264L1.5 16.5l2.246-.307c.123-.017.184-.025.238-.024a.63.63 0 0 1 .141.014c.053.01.13.038.287.093.41.145.852.224 1.312.224Z" stroke="#fff" stroke-width="2" stroke-linecap="round" stroke-linejoin="round"/></g><defs><clipPath id="a"><path fill="#fff" d="M0 0h18v18H0z"/></clipPath></defs></svg>