<svg width="136" height="48" fill="none" xmlns="http://www.w3.org/2000/svg"><path d="M22.173 24.995c0-.213.072-.427.214-.57-.498-.07-.925-.284-.925-.782 0-.498.427-.712.925-.854-.214-.142-.285-.356-.285-.57.071-1.138 2.42-.142 2.42-.142v2.918c0 .071-2.277 1.067-2.349 0Z" fill="url(#a)"/><path d="M22.458 30.332c0-.142.071-.284.142-.355-.355-.072-.64-.214-.64-.57s.285-.498.64-.57a.391.391 0 0 1-.213-.355c0-.783 1.637-.071 1.637-.071v1.992s-1.566.712-1.566-.07Z" fill="url(#b)"/><path d="M21.747 17.808a.86.86 0 0 1 .498-.498c-.57-.356-.925-.783-.64-1.352.284-.57.853-.64 1.422-.427a.646.646 0 0 1 0-.712c.57-1.21 2.704 1.068 2.704 1.068l-.427.996-.07.142-.499 1.139-.07.142-.428.925c.071-.07-2.989-.142-2.49-1.423Z" fill="url(#c)"/><path d="M25.874 36.523s-3.985 1.708-6.12 0l.64-1.139h4.697c.071 0 1.139.214 1.139.214l-.356.925Z" fill="#D6753E"/><path d="M33.417 28.126c.57.356 2.063.925 1.494 2.348-.213.356-.498.712-.783.925-.498.356-.07.499.214.427.285 0 3.771-.782 2.135-3.7-.285-.57-1.637-1.708-2.847-1.494-1.21.213-.498 1.352-.213 1.494Z" fill="url(#d)"/><path d="M24.024 26.56v3.488s-.285 3.985-2.633 3.985c0 0-4.056.426-4.697-5.551 0 0-.213 11.955 9.109 7.685l.355 1.993 2.349-3.06 3.985.427 1.494 2.206.214-11.6s7.258.997 8.539 1.14c0 0 2.562-15.158-6.974-15.798-12.595-1.424-11.67 8.895-11.67 8.895l-.071 6.19Z" fill="url(#e)"/><path d="M27.51 23.43c.072-2.206.499-2.918.997-2.918s.996 1.85.996 4.198l-1.992-1.28Z" fill="#EDEDBB"/><path d="M32.705 20.085c0 .498.783.854 1.78.854.996 0 1.778-.427 1.778-.854s-.782-.854-1.779-.854c-.996 0-1.779.356-1.779.854Zm5.48-.142c-.072.213.213.498.64.64.427.071.783 0 .854-.285.071-.284-.285-.569-.64-.64-.428-.071-.854 0-.854.285Zm-7.188.854c0 .142.143.355.498.427.285.07.57 0 .641-.143 0-.142-.142-.355-.498-.427-.356-.142-.64-.07-.64.143Zm3.487.853c-.07.143.143.356.427.427.285.072.57 0 .64-.142.072-.142-.142-.356-.426-.427-.285-.071-.64 0-.64.143Z" fill="#D69547"/><path d="M29.716 28.126s-.427 1.281-1.067 1.637c.427.57 1.21 1.138 2.064-.143-.427-.427-.712-.925-.925-1.494 0 0 1.352 2.846 2.775-.071 0 0-.712 2.348-1.78 1.566-.355.853-1.209 1.992-2.205.07-.427.214-.996-.142-1.637-1.636 0 .142 1.352 3.06 2.776.071Z" fill="#D6721E"/><path d="M35.125 14.392c-.071-1.494-1.281-2.704-2.847-2.633a2.28 2.28 0 0 0-.996.214c-.996.427-1.637 1.423-1.708 2.49 0 .926.427 1.78 1.21 2.278a2.923 2.923 0 0 0 3.985-1.139c0-.071.071-.071.071-.142.214-.356.285-.712.285-1.068Z" fill="#D6753E"/><path d="M34.911 14.108c-.07-1.424-1.21-2.562-2.633-2.491-.355 0-.64.071-.925.213-.925.427-1.565 1.281-1.565 2.349-.072.854.427 1.708 1.138 2.206 1.352.782 2.989.284 3.772-1.068 0-.07.07-.07.07-.142.072-.356.143-.712.143-1.067Z" fill="#EDEDBB"/><path d="M31.21 14.677c0 .57.428.996.997.996.57 0 .996-.427.996-.996a.973.973 0 0 0-.996-.996c-.498-.072-.925.355-.996.996 0-.071 0-.071 0 0Z" fill="#9E512B"/><path d="M31.567 14.535c0 .355.284.64.64.64.356 0 .64-.285.64-.64a.638.638 0 0 0-.64-.64c-.285-.072-.57.213-.64.64.07-.072 0-.072 0 0Z" fill="#542713"/><path d="M31.282 13.752c0 .284.213.498.498.498a.486.486 0 0 0 .498-.498.486.486 0 0 0-.498-.498.486.486 0 0 0-.498.498Z" fill="#fff"/><path d="M31.78 17.737a4.666 4.666 0 0 0 3.131-1.21 3.863 3.863 0 0 1-6.19 0c.782.783 1.92 1.21 3.06 1.21Z" fill="#D69547"/><path d="M32.136 17.239c.925 0 1.85-.427 2.49-1.068-.996 1.423-2.988 1.78-4.411.783a6.403 6.403 0 0 1-.712-.64c.783.64 1.708.996 2.633.925Z" fill="#D69547"/><path d="M32.35 25.85c1.28.355 2.632.64 3.984.853 1.21.213 2.349.356 3.274.427 1.85.213 3.06.213 3.06.213s-1.139-.142-2.989-.427c-.925-.142-2.064-.355-3.273-.569-1.21-.213-2.562-.569-3.914-.925a20.977 20.977 0 0 1-3.7-1.423c-.499-.285-.997-.57-1.424-.925a4.123 4.123 0 0 1-.996-1.21c-.214-.356-.285-.783-.285-1.21v-.498c0-.07 0-.142.071-.213.072-.071.072-.143.072-.214.07-.213.142-.355.213-.569l.071-.213-.142.213c-.142.142-.214.356-.285.57 0 .07-.07.142-.07.213 0 .07-.072.142-.072.213 0 .071-.071.143-.071.285v.285c-.071.427 0 .854.213 1.28.214.499.57.925.925 1.352a5.7 5.7 0 0 0 1.495 1.068c1.28.57 2.561 1.067 3.842 1.423Z" fill="#D6753E"/><mask id="f" style="mask-type:luminance" maskUnits="userSpaceOnUse" x="35" y="12" width="9" height="7"><path fill-rule="evenodd" clip-rule="evenodd" d="M35.979 18.093h7.045l.284-5.764-7.33 1.494v4.27Z" fill="#fff"/></mask><g mask="url(#f)"><path d="M36.121 14.464c.071 1.423 1.21 2.561 2.633 2.49.356 0 .64-.071.925-.213.925-.427 1.566-1.281 1.566-2.349 0-.853-.427-1.707-1.139-2.206-1.352-.782-2.989-.284-3.772 1.068 0 .071-.07.071-.07.142-.072.356-.143.712-.143 1.068Z" fill="#D6753E"/><path d="M36.192 14.179c0 1.352 1.21 2.49 2.562 2.42.356 0 .64-.072.925-.214a2.673 2.673 0 0 0 1.566-2.277c0-.854-.427-1.637-1.14-2.135-1.28-.712-2.917-.285-3.628.996 0 .071-.071.143-.071.143a2.856 2.856 0 0 0-.214 1.067Z" fill="#EDEDBB"/><path d="M38.896 15.673a.996.996 0 1 0 0-1.992.996.996 0 0 0 0 1.992Z" fill="#9E512B"/><path d="M38.185 14.535c0 .355.284.64.64.64.356 0 .64-.285.64-.64a.638.638 0 0 0-.64-.64c-.285-.072-.64.213-.64.64Z" fill="#542713"/><path d="M39.252 17.595c.996.142 1.992-.142 2.846-.712-1.28 1.352-3.415 1.495-4.838.214-.214-.214-.427-.498-.64-.783.71.712 1.636 1.21 2.632 1.28Z" fill="#D69547"/><path d="M37.9 13.752c0 .285.214.498.498.498a.486.486 0 0 0 .498-.498.486.486 0 0 0-.498-.498.486.486 0 0 0-.498.498Z" fill="#fff"/><path d="M39.465 17.097c.854-.143 1.566-.498 2.135-1.139-.782 1.352-2.49 1.85-3.842 1.139-.214-.143-.427-.285-.64-.499.71.427 1.565.64 2.347.499Z" fill="#D69547"/></g><path d="M41.245 10.977c-.926 1.92-2.99 3.06-5.124 2.704.071 0 3.7-.925 5.123-2.704Zm-6.334.426c-.854-.427-4.412-2.134-5.835.214a2.398 2.398 0 0 1 1.921-1.637c1.424-.427 2.99.143 3.914 1.423Z" fill="#D69547"/><path d="M25.162 28.126c-.57.356-2.063.925-1.494 2.348.213.356.427.64.783.925.498.285.07.499-.214.427-.284 0-3.771-.711-2.135-3.7.285-.57 1.637-1.708 2.847-1.494 1.21.213.498 1.352.213 1.494Z" fill="url(#g)"/><path d="M48.36 26.276c0-.64.072-1.28.356-1.921a5.05 5.05 0 0 1 .925-1.566 5.702 5.702 0 0 1 1.495-1.067c.64-.285 1.352-.427 1.992-.356.427 0 .925.071 1.352.142.427.072.783.214 1.21.356l-.57 2.064a11.69 11.69 0 0 1-.782-.214c-.356-.07-.64-.142-.996-.07-.64-.072-1.281.213-1.708.71-.427.57-.64 1.21-.57 1.922-.07.712.143 1.352.57 1.922.498.498 1.139.782 1.85.711.356 0 .712 0 .996-.071.356-.071.712-.142.997-.285l.356 2.135a7.001 7.001 0 0 1-1.14.356c-.497.071-.995.142-1.493.142-.712 0-1.495-.142-2.206-.356a3.634 3.634 0 0 1-1.495-1.067c-.427-.427-.711-.996-.854-1.566-.213-.64-.284-1.28-.284-1.92Zm17.862 0c0 .712-.071 1.352-.285 1.993a5.05 5.05 0 0 1-.925 1.565c-.427.427-.854.783-1.423.996-.57.214-1.21.356-1.85.356-.64 0-1.281-.142-1.85-.356-.57-.213-.997-.569-1.424-.996-.427-.427-.711-.996-.925-1.565-.213-.64-.355-1.281-.355-1.993 0-.711.142-1.352.355-1.992.214-.57.57-1.068.925-1.495.427-.427.854-.783 1.424-.996a4.594 4.594 0 0 1 3.629 0c.57.213.996.57 1.423.996.427.427.712.996.925 1.495.285.64.356 1.352.356 1.992Zm-2.633 0c.071-.64-.142-1.352-.498-1.921-.57-.783-1.637-.925-2.42-.356-.142.071-.213.213-.355.356-.356.57-.499 1.21-.499 1.921-.07.712.143 1.352.498 1.922.285.498.855.711 1.424.711s1.067-.213 1.352-.711c.356-.57.57-1.21.498-1.922Zm7.97-7.258c0 .427-.142.854-.427 1.138-.285.285-.712.427-1.139.427-.426 0-.782-.142-1.067-.427-.285-.284-.498-.711-.427-1.138 0-.427.142-.854.498-1.139.64-.57 1.566-.57 2.206 0 .214.285.427.712.356 1.139Zm-.213 11.955h-2.633v-9.251h2.633v9.25Zm2.917-8.967c1.281-.355 2.633-.498 3.914-.498.64 0 1.352.072 1.992.285.499.213.925.498 1.21.854.285.427.498.854.64 1.352a7.02 7.02 0 0 1 .214 1.708V30.9H79.6v-4.91c.071-.64-.071-1.21-.356-1.779a1.413 1.413 0 0 0-1.28-.498h-.57l-.57.072V30.9h-2.632l.071-8.895ZM91.982 23.5l-.854.926c-.356.427-.711.854-1.138 1.352l-1.281 1.494c-.427.498-.783 1.068-1.139 1.566h4.483v2.206h-7.685v-1.566c.285-.498.57-.925.854-1.352l1.067-1.494c.356-.498.783-.997 1.139-1.423l1.067-1.281h-3.914v-2.206h7.33V23.5h.071Zm5.124-4.482c0 .427-.143.854-.498 1.138-.285.285-.712.427-1.068.427-.427 0-.783-.142-1.067-.427-.285-.284-.498-.711-.498-1.138 0-.427.142-.854.498-1.139.64-.57 1.565-.57 2.206 0 .284.285.427.712.427 1.139Zm-.285 11.955h-2.633v-9.251h2.633v9.25Zm6.618.142c-.64 0-1.281-.071-1.85-.284a3.611 3.611 0 0 1-1.139-.641c-.284-.285-.498-.64-.57-.996-.07-.427-.141-.854-.141-1.352V17.666l2.633-.427v10.033c0 .214 0 .427.071.64a.77.77 0 0 0 .213.499c.143.142.285.285.427.285.214.07.498.142.783.142l-.427 2.277Zm5.977 0c-.64 0-1.28-.071-1.85-.284a3.607 3.607 0 0 1-1.138-.641c-.285-.285-.498-.64-.57-.996-.071-.427-.142-.854-.142-1.352V17.666l2.633-.427v10.033c0 .214 0 .427.071.64 0 .143.071.357.214.499.142.142.284.285.427.285.213.07.498.142.782.142l-.427 2.277Zm5.907-9.607c.64 0 1.281.072 1.921.285a2.4 2.4 0 0 1 1.21.783c.285.355.569.782.64 1.21a5.9 5.9 0 0 1 .214 1.565v5.408c-.356.071-.925.142-1.566.285-.782.142-1.636.213-2.419.142-.569 0-1.068-.071-1.637-.142-.427-.071-.854-.285-1.281-.498a1.97 1.97 0 0 1-.783-.925c-.213-.427-.284-.925-.284-1.424 0-.498.071-.925.356-1.352.213-.355.498-.64.854-.925.355-.213.782-.356 1.28-.498.499-.071.997-.142 1.495-.142.284 0 .569 0 .925.071.213 0 .427.071.64.142v-.213c0-.427-.142-.783-.427-1.068a2.566 2.566 0 0 0-1.423-.427c-.427 0-.854 0-1.352.072-.356.07-.783.142-1.138.284l-.356-2.135.569-.142c.214-.071.498-.071.783-.142.284-.071.569-.071.854-.071.284 0 .64-.143.925-.143Zm.213 7.614h.712c.213 0 .356 0 .569-.07v-1.993c-.142 0-.284-.071-.498-.071h-.569c-.214 0-.498 0-.712.07-.213 0-.356.072-.569.143a.858.858 0 0 0-.356.356c-.285.498-.142 1.067.285 1.352.356.213.711.285 1.138.213Z" fill="#2A436F"/><defs><linearGradient id="a" x1="23.258" y1="22.559" x2="22.966" y2="24.594" gradientUnits="userSpaceOnUse"><stop stop-color="#EA8632"/><stop offset="1" stop-color="#D6721E"/></linearGradient><linearGradient id="b" x1="23.417" y1="28.138" x2="22.983" y2="30.031" gradientUnits="userSpaceOnUse"><stop stop-color="#EA8632"/><stop offset="1" stop-color="#D6721E"/></linearGradient><linearGradient id="c" x1="23.793" y1="15.66" x2="22.775" y2="18.635" gradientUnits="userSpaceOnUse"><stop stop-color="#EA8632"/><stop offset="1" stop-color="#D6721E"/></linearGradient><linearGradient id="d" x1="34.293" y1="31.85" x2="35.036" y2="26.704" gradientUnits="userSpaceOnUse"><stop stop-color="#D69547"/><stop offset="1" stop-color="#CC6806"/></linearGradient><linearGradient id="e" x1="32.631" y1="17.802" x2="29.237" y2="29.437" gradientUnits="userSpaceOnUse"><stop stop-color="#F0CD59"/><stop offset="1" stop-color="#F7931A"/></linearGradient><linearGradient id="g" x1="25.646" y1="42.692" x2="24.918" y2="37.542" gradientUnits="userSpaceOnUse"><stop stop-color="#D69547"/><stop offset="1" stop-color="#CC6806"/></linearGradient></defs></svg>