<svg width="136" height="48" fill="none" xmlns="http://www.w3.org/2000/svg"><path d="M97.986 23.996c0 3.067 2.281 5.599 5.232 5.969h.008v-2.36a4.306 4.306 0 0 1-.899-.197 3.542 3.542 0 0 1-.973-.477l-.474-.337c-.065-.05-.073-.132-.032-.198l.662-.953a.137.137 0 0 1 .075-.053.151.151 0 0 1 .121.02l.474.337a2.174 2.174 0 0 0 .301.173 2.842 2.842 0 0 0 .745.23v-1.513c-.858-.164-1.741-.542-2.182-1.307a1.705 1.705 0 0 1-.237-1.036c.032-.361.18-.699.408-.978.483-.592 1.243-.864 2.003-.945V15.75l-1.569 2.697a6.021 6.021 0 0 0-3.663 5.549Z" fill="url(#a)"/><path d="M103.219 21.834c-.36.057-.703.172-.9.41a.424.424 0 0 0-.09.19.246.246 0 0 0 .013.107.413.413 0 0 0 .037.082c.079.14.213.252.373.342.085.047.178.088.275.123.095.034.193.063.292.086v-1.34Z" fill="url(#b)"/><path d="M104.592 18.019c3.008.313 5.363 2.87 5.363 5.985a6.027 6.027 0 0 1-3.834 5.615l-1.529 2.631v-4.637c.719-.098 1.423-.37 1.88-.929.229-.28.376-.617.409-.978a1.705 1.705 0 0 0-.237-1.036c-.417-.723-1.234-1.11-2.052-1.283v-1.512c.115.025.221.058.327.09.204.066.409.165.589.288l.474.337a.141.141 0 0 0 .196-.033l.662-.953c.041-.066.033-.149-.033-.198l-.474-.337a3.49 3.49 0 0 0-.972-.477 5.055 5.055 0 0 0-.777-.18v-2.393h.008Z" fill="url(#c)"/><path d="M104.592 26.15c.311-.066.597-.181.768-.395a.404.404 0 0 0 .09-.189.275.275 0 0 0-.049-.18c-.147-.256-.474-.42-.809-.519v1.283Z" fill="url(#d)"/><path d="M9.93 22.78c-.557-.979-1.374-1.522-2.519-1.522-1.487 0-2.648 1.184-2.656 2.763 0 1.628 1.185 2.77 2.73 2.77 1.193 0 2.044-.674 2.534-1.52l2.37 1.71c-.988 1.578-2.566 2.745-5.035 2.745-3.188 0-5.804-2.417-5.804-5.722 0-3.395 2.665-5.722 5.853-5.722 2.281 0 3.924 1.028 4.979 2.746L9.929 22.78Z" fill="url(#e)"/><path d="m29.37 25.546 3.777-7.038h-3.32l-2.01 4.136-1.962-4.136h-3.41l3.778 6.997V29.5h3.147v-3.954Z" fill="url(#f)"/><path fill-rule="evenodd" clip-rule="evenodd" d="M43.202 22.487c0 2.36-1.52 4.235-4.275 4.235h-1.61v2.77h-3.14V18.508h5.118c2.583 0 3.907 1.817 3.907 3.98Zm-3.204.132c0-.822-.466-1.315-1.406-1.315h-1.276v2.63h1.276c.866 0 1.406-.485 1.406-1.315Z" fill="url(#g)"/><path d="M53.802 18.508v3.083h-3.357v7.9h-3.14v-7.9H43.95v-3.083h9.853Z" fill="url(#h)"/><path fill-rule="evenodd" clip-rule="evenodd" d="M20.695 26.03c1.143-.753 1.75-2.05 1.75-3.543 0-2.162-1.324-3.979-3.907-3.979h-5.117v10.984h3.139v-2.77h1.136l1.533 2.77h3.381l-1.915-3.462Zm-2.86-4.726c.94 0 1.406.493 1.406 1.315 0 .83-.54 1.316-1.406 1.316H16.56v-2.631h1.275Z" fill="url(#i)"/><path d="M84.814 22.76c-.556-.978-1.373-1.521-2.518-1.521-1.487 0-2.648 1.184-2.665 2.738 0 1.628 1.186 2.77 2.73 2.77 1.194 0 2.045-.674 2.535-1.52l2.379 1.734c-.99 1.579-2.567 2.746-5.036 2.746-3.188 0-5.804-2.417-5.804-5.722 0-3.395 2.665-5.722 5.853-5.722 2.281 0 3.924 1.028 4.979 2.746l-2.453 1.75Z" fill="url(#j)"/><path fill-rule="evenodd" clip-rule="evenodd" d="M60.592 18.31c-3.188 0-5.935 2.28-5.935 5.675 0 3.305 2.616 5.722 5.805 5.722h.261c3.188 0 5.804-2.417 5.804-5.722 0-3.396-2.746-5.675-5.935-5.675Zm-2.73 5.691c.008-1.578 1.242-2.727 2.73-2.727s2.723 1.149 2.73 2.727c0 1.628-1.185 2.77-2.73 2.77s-2.73-1.142-2.73-2.77Z" fill="url(#k)"/><path d="M97.307 29.493H88.63V18.51h3.14v8.188h5.538v2.795Z" fill="url(#l)"/><path d="M111.172 24.142v-5.633h3.235v5.633c0 1.272 1.011 2.303 2.258 2.303s2.258-1.031 2.258-2.303v-5.633h3.235v5.633c0 3.095-2.459 5.603-5.493 5.603-3.034 0-5.493-2.508-5.493-5.603Z" fill="url(#m)"/><path fill-rule="evenodd" clip-rule="evenodd" d="M123.794 18.505V29.71h5.013c3.033 0 5.493-2.508 5.493-5.603 0-3.095-2.46-5.603-5.493-5.603h-5.013Zm3.236 7.906h1.777c1.247 0 2.258-1.031 2.258-2.303s-1.011-2.303-2.258-2.303h-1.777v4.606Z" fill="url(#n)"/><path d="M67.264 27.155v2.35h7.96v-3.122h-3.146l1.117-1.27c.618-.709 1.07-1.314 1.352-1.818.294-.505.44-1.094.44-1.77 0-1.105-.387-1.968-1.163-2.59-.766-.633-1.689-.95-2.769-.95-.88 0-1.683.231-2.407.693-.713.46-1.253 1.136-1.62 2.026l2.769 1.545c.283-.762.718-1.142 1.305-1.142.242 0 .425.064.551.193a.591.591 0 0 1 .189.45.58.58 0 0 1-.047.225 1.492 1.492 0 0 1-.08.194.904.904 0 0 1-.156.225 4.318 4.318 0 0 1-.19.209 3.986 3.986 0 0 1-.25.273 12.6 12.6 0 0 0-.268.306l-3.587 3.974Z" fill="url(#o)"/><defs><linearGradient id="a" x1="8.053" y1="19.875" x2="126.832" y2="45.843" gradientUnits="userSpaceOnUse"><stop stop-color="#B04AFF"/><stop offset="1" stop-color="#FF814A"/></linearGradient><linearGradient id="b" x1="8.053" y1="19.875" x2="126.832" y2="45.843" gradientUnits="userSpaceOnUse"><stop stop-color="#B04AFF"/><stop offset="1" stop-color="#FF814A"/></linearGradient><linearGradient id="c" x1="8.053" y1="19.875" x2="126.832" y2="45.843" gradientUnits="userSpaceOnUse"><stop stop-color="#B04AFF"/><stop offset="1" stop-color="#FF814A"/></linearGradient><linearGradient id="d" x1="8.053" y1="19.875" x2="126.832" y2="45.843" gradientUnits="userSpaceOnUse"><stop stop-color="#B04AFF"/><stop offset="1" stop-color="#FF814A"/></linearGradient><linearGradient id="e" x1="8.053" y1="19.875" x2="126.832" y2="45.843" gradientUnits="userSpaceOnUse"><stop stop-color="#B04AFF"/><stop offset="1" stop-color="#FF814A"/></linearGradient><linearGradient id="f" x1="8.053" y1="19.875" x2="126.832" y2="45.843" gradientUnits="userSpaceOnUse"><stop stop-color="#B04AFF"/><stop offset="1" stop-color="#FF814A"/></linearGradient><linearGradient id="g" x1="8.053" y1="19.875" x2="126.832" y2="45.843" gradientUnits="userSpaceOnUse"><stop stop-color="#B04AFF"/><stop offset="1" stop-color="#FF814A"/></linearGradient><linearGradient id="h" x1="8.053" y1="19.875" x2="126.832" y2="45.843" gradientUnits="userSpaceOnUse"><stop stop-color="#B04AFF"/><stop offset="1" stop-color="#FF814A"/></linearGradient><linearGradient id="i" x1="8.053" y1="19.875" x2="126.832" y2="45.843" gradientUnits="userSpaceOnUse"><stop stop-color="#B04AFF"/><stop offset="1" stop-color="#FF814A"/></linearGradient><linearGradient id="j" x1="8.053" y1="19.875" x2="126.832" y2="45.843" gradientUnits="userSpaceOnUse"><stop stop-color="#B04AFF"/><stop offset="1" stop-color="#FF814A"/></linearGradient><linearGradient id="k" x1="8.053" y1="19.875" x2="126.832" y2="45.843" gradientUnits="userSpaceOnUse"><stop stop-color="#B04AFF"/><stop offset="1" stop-color="#FF814A"/></linearGradient><linearGradient id="l" x1="8.053" y1="19.875" x2="126.832" y2="45.843" gradientUnits="userSpaceOnUse"><stop stop-color="#B04AFF"/><stop offset="1" stop-color="#FF814A"/></linearGradient><linearGradient id="m" x1="8.053" y1="19.875" x2="126.832" y2="45.843" gradientUnits="userSpaceOnUse"><stop stop-color="#B04AFF"/><stop offset="1" stop-color="#FF814A"/></linearGradient><linearGradient id="n" x1="8.053" y1="19.875" x2="126.832" y2="45.843" gradientUnits="userSpaceOnUse"><stop stop-color="#B04AFF"/><stop offset="1" stop-color="#FF814A"/></linearGradient><linearGradient id="o" x1="8.053" y1="19.875" x2="126.832" y2="45.843" gradientUnits="userSpaceOnUse"><stop stop-color="#B04AFF"/><stop offset="1" stop-color="#FF814A"/></linearGradient></defs></svg>