<svg width="136" height="48" fill="none" xmlns="http://www.w3.org/2000/svg"><path fill-rule="evenodd" clip-rule="evenodd" d="M19.28 20.857c1.413 0 2.421.641 3.107 1.797l3.025-2.07c-1.3-2.03-3.328-3.244-6.141-3.244-3.933 0-7.221 2.75-7.221 6.762 0 3.906 3.227 6.762 7.16 6.762 3.046 0 4.992-1.38 6.212-3.245l-2.924-2.02c-.605 1-1.654 1.797-3.126 1.797-1.907 0-3.369-1.35-3.369-3.275.01-1.865 1.442-3.264 3.278-3.264Zm13.696 10.192c-3.64-.437-6.454-3.43-6.454-7.054 0-2.954 1.865-5.48 4.518-6.558l1.936-3.187v5.46c-.938.098-1.876.418-2.47 1.118-.283.33-.465.728-.505 1.156-.04.427.06.855.292 1.224.545.904 1.634 1.35 2.693 1.545v1.788a3.667 3.667 0 0 1-.565-.136 2.891 2.891 0 0 1-.726-.34l-.585-.399c-.08-.048-.181-.039-.242.04l-.817 1.126c-.05.078-.04.175.04.233l.586.399c.363.243.776.437 1.2.563.363.117.736.195 1.11.233v2.789h-.011Zm0-9.61c-.444.069-.867.205-1.11.487a.473.473 0 0 0-.11.223c-.01.078.02.156.06.224.202.34.686.544 1.16.65V21.44Zm1.694-4.507c3.712.369 6.616 3.39 6.616 7.073 0 3.021-1.967 5.606-4.73 6.636L34.67 33.75v-5.48c.888-.116 1.755-.437 2.32-1.098a2.08 2.08 0 0 0 .504-1.156 1.95 1.95 0 0 0-.292-1.224c-.515-.855-1.523-1.312-2.532-1.516v-1.788c.142.03.273.068.404.107.252.078.504.195.726.34l.585.399c.08.048.181.039.242-.04l.817-1.126c.05-.078.04-.175-.04-.233l-.586-.399a4.487 4.487 0 0 0-1.2-.563 6.48 6.48 0 0 0-.958-.214v-2.827h.01Zm0 9.609c.383-.078.736-.214.948-.467a.47.47 0 0 0 .111-.223.316.316 0 0 0-.06-.214c-.182-.301-.585-.495-.999-.612v1.516Zm85.257 4.08h3.873v-12.99h-3.873v4.946h-4.508V17.63h-3.872v12.98h3.872v-4.73h4.508v4.742Zm-16.287.243c3.621 0 5.547-1.797 5.547-4.187 0-3.07-2.713-3.644-4.82-4.09-1.342-.282-2.421-.535-2.421-1.351 0-.457.414-.855 1.362-.855 1.512 0 1.754.835 1.795 1.496h3.782c-.212-2.769-2.189-4.489-5.507-4.489-3.166 0-5.234 1.671-5.234 4.227 0 3.264 3.046 3.867 5.174 4.362 1.139.262 1.986.515 1.986 1.098 0 .573-.605.875-1.553.875-1.412 0-1.865-.72-1.926-1.458h-3.832c.181 2.818 2.148 4.372 5.647 4.372Zm-12.616-5.159h-2.813l1.412-4.42 1.401 4.42Zm1.573 4.917h4.135l-4.508-12.99h-4.961l-4.528 12.98h3.912l.606-1.895h4.73l.614 1.905Zm-17.033-9.765c1.412 0 2.42.641 3.106 1.797l3.026-2.07c-1.301-2.03-3.328-3.244-6.142-3.244-3.933 0-7.22 2.75-7.22 6.762 0 3.906 3.227 6.762 7.16 6.762 3.045 0 4.992-1.38 6.212-3.245l-2.935-2.05c-.605 1-1.654 1.798-3.126 1.798-1.906 0-3.368-1.35-3.368-3.275.02-1.836 1.452-3.235 3.287-3.235Zm-12.081 9.765v-4.664l4.659-8.317h-4.095l-2.48 4.887-2.42-4.887H54.94l4.659 8.268v4.722h3.883v-.01Zm-14.14-3.285c3.4 0 5.275-2.215 5.275-5.003 0-2.556-1.634-4.703-4.82-4.703h-6.314v12.98h3.873v-3.274h1.987Zm-.413-6.402c1.16 0 1.735.583 1.735 1.554 0 .982-.666 1.555-1.735 1.555h-1.573v-3.11h1.573Z" fill="url(#a)"/><defs><linearGradient id="a" x1="12.05" y1="14.25" x2="92.423" y2="75.156" gradientUnits="userSpaceOnUse"><stop stop-color="#4A349F"/><stop offset="1" stop-color="#4A63BD"/></linearGradient></defs></svg>