<svg width="136" height="48" fill="none" xmlns="http://www.w3.org/2000/svg"><path fill-rule="evenodd" clip-rule="evenodd" d="M25.28 23.04h15.714l-1.944-3.357a2.179 2.179 0 0 0-1.884-1.084h-4.169l3.561-6.152 12.905 22.299 9.35-16.147h-5.145l-4.205 7.262-12.905-22.3-11.278 19.48Z" fill="url(#a)"/><path fill-rule="evenodd" clip-rule="evenodd" d="M99.375 21.252h2.944v-2.935h-2.944v2.935Zm-7.92 10.549a3.119 3.119 0 0 1-3.12-3.11 3.12 3.12 0 0 1 3.12-3.111c1.72 0 3.12 1.395 3.12 3.11 0 1.716-1.4 3.111-3.12 3.111Zm0-9.156c-1.21 0-2.336.356-3.283.966v-5.293h-2.944v16.115h2.944v-.664c.947.61 2.074.967 3.284.967 3.343 0 6.063-2.712 6.063-6.046 0-3.333-2.72-6.045-6.063-6.045Zm19.265.067v1.48c0 .803-.654 1.454-1.46 1.454h-1.483v3.745c0 1.174.954 2.126 2.132 2.126h.811v2.935h-.811c-2.804 0-5.076-2.267-5.076-5.061V18.318h1.484c.806 0 1.46.652 1.46 1.456v2.938h2.943Zm-38.366 11.74h10.634v-1.518a1.42 1.42 0 0 0-1.422-1.418h-3.833l5.652-8.803h-10.31v2.934h4.932l-5.653 8.805Zm29.964.013h-2.944V22.712h2.944v11.753ZM64.073 23.884l-1.977 4.824h3.849l-1.872-4.824Zm7.256 10.568H69.57a2.043 2.043 0 0 1-1.903-1.3l-.636-1.636h-6.086l-1.202 2.936h-3.18l6.184-15.221a1.472 1.472 0 0 1 2.735.024l5.846 15.197Z" fill="#000"/><defs><linearGradient id="a" x1="42.047" y1="3.562" x2="42.047" y2="34.746" gradientUnits="userSpaceOnUse"><stop stop-color="#18C994"/><stop offset="1" stop-color="#17875E"/></linearGradient></defs></svg>