<svg width="32" height="32" fill="none" xmlns="http://www.w3.org/2000/svg"><path d="M11.023 26.383c9.797 0 15.23-8.318 14.9-15.584a10.553 10.553 0 0 0 1.952-1.83.318.318 0 0 0-.346-.501c-.431.138-.87.25-1.315.332a.16.16 0 0 1-.124-.283 5.257 5.257 0 0 0 1.386-1.665.314.314 0 0 0-.42-.423c-.813.388-1.67.671-2.553.844a5.242 5.242 0 0 0-8.971 4.583.16.16 0 0 1-.096.177.16.16 0 0 1-.07.012 14.865 14.865 0 0 1-9.936-4.71.635.635 0 0 0-1.076.232 5.09 5.09 0 0 0 1.592 5.682.156.156 0 0 1-.119.276 5.01 5.01 0 0 1-.882-.201.63.63 0 0 0-.618.125.606.606 0 0 0-.2.597c1.11 4.274 4.116 3.73 4.116 4.053 0 .22-.595.22-1.392.221a.63.63 0 0 0-.556.92 5.287 5.287 0 0 0 4.035 2.602.157.157 0 0 1 .137.21.158.158 0 0 1-.057.075 10.456 10.456 0 0 1-4.922 1.915.619.619 0 0 0-.197 1.184 14.656 14.656 0 0 0 5.732 1.157Z" fill="#491361"/></svg>