<svg width="18" height="18" fill="none" xmlns="http://www.w3.org/2000/svg"><path d="M16.777 4.49c-.43.418-.9.828-1.316 1.259-.114.118-.225.3-.227.455a9.283 9.283 0 0 1-.59 3.155c-1.39 3.693-5.082 6.127-9.338 5.746-1.453-.13-2.838-.54-4.09-1.315 1.654.102 3.19-.294 4.62-1.305-1.45-.172-2.444-.827-2.989-2.172h1.307C2.73 9.758 1.836 8.828 1.739 7.234l1.587.419c-.923-.611-1.482-1.424-1.554-2.499-.04-.596.11-1.147.422-1.717C3.982 5.431 6.177 6.5 8.775 6.662c.038-.508.007-.983.115-1.423.562-2.282 3.394-3.147 5.239-1.607.196.163.359.215.59.129.531-.199 1.067-.388 1.634-.593-.222.662-.676 1.135-1.223 1.54m1.647-.217c-.023-.027.023.027 0 0Zm0 0a6.31 6.31 0 0 0-1.647.217m0 0c-.012-.026.011.027 0 0Z" stroke="#491361" stroke-width="2" stroke-linecap="round" stroke-linejoin="round"/></svg>