<svg width="19" height="18" viewBox="0 0 19 18" fill="none" xmlns="http://www.w3.org/2000/svg">
<path d="M16.5 6.66667L16.5 2M16.5 2H11.8333M16.5 2L10.2778 8.22222M7.94444 3.55556H6.23333C4.92654 3.55556 4.27315 3.55556 3.77402 3.80987C3.33498 4.03358 2.97802 4.39053 2.75432 4.82958C2.5 5.32871 2.5 5.9821 2.5 7.28889V12.2667C2.5 13.5735 2.5 14.2269 2.75432 14.726C2.97802 15.165 3.33498 15.522 3.77402 15.7457C4.27315 16 4.92654 16 6.23333 16H11.2111C12.5179 16 13.1713 16 13.6704 15.7457C14.1095 15.522 14.4664 15.165 14.6901 14.726C14.9444 14.2269 14.9444 13.5735 14.9444 12.2667V10.5556" stroke="#491361" stroke-width="2" stroke-linecap="round" stroke-linejoin="round"/>
</svg>
