<svg width="89" height="40" viewBox="0 0 89 40" fill="none" xmlns="http://www.w3.org/2000/svg">
<path d="M0.342 31.4V15.032H3.048V17.408L2.784 16.814C3.19467 16.1687 3.752 15.67 4.456 15.318C5.16 14.9513 5.974 14.768 6.898 14.768C8.02733 14.768 9.04667 15.0467 9.956 15.604C10.8653 16.1613 11.584 16.9093 12.112 17.848C12.6547 18.7867 12.926 19.8427 12.926 21.016C12.926 22.1747 12.662 23.2307 12.134 24.184C11.606 25.1373 10.8873 25.8927 9.978 26.45C9.06867 26.9927 8.03467 27.264 6.876 27.264C6.01067 27.264 5.21133 27.0953 4.478 26.758C3.75933 26.406 3.18733 25.9073 2.762 25.262L3.224 24.69V31.4H0.342ZM6.546 24.624C7.206 24.624 7.79267 24.47 8.306 24.162C8.81933 23.854 9.21533 23.4287 9.494 22.886C9.78733 22.3433 9.934 21.72 9.934 21.016C9.934 20.312 9.78733 19.696 9.494 19.168C9.21533 18.6253 8.81933 18.2 8.306 17.892C7.79267 17.5693 7.206 17.408 6.546 17.408C5.91533 17.408 5.34333 17.562 4.83 17.87C4.33133 18.178 3.93533 18.6107 3.642 19.168C3.36333 19.7107 3.224 20.3267 3.224 21.016C3.224 21.72 3.36333 22.3433 3.642 22.886C3.93533 23.4287 4.33133 23.854 4.83 24.162C5.34333 24.47 5.91533 24.624 6.546 24.624ZM14.4633 27V15.032H17.1693V17.694L16.9493 17.298C17.2279 16.4033 17.6606 15.78 18.2473 15.428C18.8486 15.076 19.5673 14.9 20.4033 14.9H21.1073V17.452H20.0733C19.2519 17.452 18.5919 17.7087 18.0933 18.222C17.5946 18.7207 17.3453 19.4247 17.3453 20.334V27H14.4633ZM22.0318 27V15.032H24.9138V27H22.0318ZM22.0318 13.69V10.61H24.9138V13.69H22.0318ZM26.9147 27V15.032H29.6207V17.804L29.3127 17.342C29.5327 16.4767 29.9727 15.8313 30.6327 15.406C31.2927 14.9807 32.0701 14.768 32.9647 14.768C33.9474 14.768 34.8127 15.0247 35.5607 15.538C36.3087 16.0513 36.7927 16.726 37.0127 17.562L36.1987 17.628C36.5654 16.6747 37.1154 15.9633 37.8487 15.494C38.5821 15.01 39.4254 14.768 40.3787 14.768C41.2294 14.768 41.9847 14.9587 42.6447 15.34C43.3194 15.7213 43.8474 16.2567 44.2287 16.946C44.6101 17.6207 44.8007 18.4053 44.8007 19.3V27H41.9187V19.982C41.9187 19.454 41.8234 18.9993 41.6327 18.618C41.4421 18.2367 41.1781 17.9433 40.8407 17.738C40.5034 17.518 40.0927 17.408 39.6087 17.408C39.1541 17.408 38.7507 17.518 38.3987 17.738C38.0467 17.9433 37.7754 18.2367 37.5847 18.618C37.3941 18.9993 37.2987 19.454 37.2987 19.982V27H34.4167V19.982C34.4167 19.454 34.3214 18.9993 34.1307 18.618C33.9401 18.2367 33.6687 17.9433 33.3167 17.738C32.9794 17.518 32.5761 17.408 32.1067 17.408C31.6521 17.408 31.2487 17.518 30.8967 17.738C30.5447 17.9433 30.2734 18.2367 30.0827 18.618C29.8921 18.9993 29.7967 19.454 29.7967 19.982V27H26.9147ZM52.255 27.264C51.023 27.264 49.945 26.9853 49.021 26.428C48.097 25.8707 47.3783 25.1153 46.865 24.162C46.3516 23.2087 46.095 22.1527 46.095 20.994C46.095 19.7913 46.3516 18.728 46.865 17.804C47.393 16.8653 48.1043 16.1247 48.999 15.582C49.9083 15.0393 50.9203 14.768 52.035 14.768C52.9736 14.768 53.795 14.922 54.499 15.23C55.2176 15.538 55.8263 15.9633 56.325 16.506C56.8236 17.0487 57.205 17.672 57.469 18.376C57.733 19.0653 57.865 19.8133 57.865 20.62C57.865 20.8253 57.8503 21.038 57.821 21.258C57.8063 21.478 57.7696 21.6687 57.711 21.83H48.471V19.63H56.083L54.719 20.664C54.851 19.9893 54.8143 19.388 54.609 18.86C54.4183 18.332 54.0956 17.914 53.641 17.606C53.201 17.298 52.6656 17.144 52.035 17.144C51.4336 17.144 50.8983 17.298 50.429 17.606C49.9596 17.8993 49.6003 18.3393 49.351 18.926C49.1163 19.498 49.0283 20.1947 49.087 21.016C49.0283 21.7493 49.1236 22.402 49.373 22.974C49.637 23.5313 50.0183 23.964 50.517 24.272C51.0303 24.58 51.617 24.734 52.277 24.734C52.937 24.734 53.4943 24.5947 53.949 24.316C54.4183 24.0373 54.785 23.6633 55.049 23.194L57.381 24.338C57.1463 24.91 56.7796 25.416 56.281 25.856C55.7823 26.296 55.1883 26.6407 54.499 26.89C53.8243 27.1393 53.0763 27.264 52.255 27.264Z" fill="#491361"/>
<path d="M70.106 27.264C68.918 27.264 67.8473 26.9927 66.894 26.45C65.9553 25.8927 65.2147 25.1447 64.672 24.206C64.1293 23.2527 63.858 22.182 63.858 20.994C63.858 19.806 64.1293 18.7427 64.672 17.804C65.2147 16.8653 65.9553 16.1247 66.894 15.582C67.8473 15.0393 68.918 14.768 70.106 14.768C70.9567 14.768 71.7487 14.922 72.482 15.23C73.2153 15.5233 73.846 15.934 74.374 16.462C74.9167 16.9753 75.3053 17.5913 75.54 18.31L73.01 19.41C72.79 18.8087 72.416 18.3247 71.888 17.958C71.3747 17.5913 70.7807 17.408 70.106 17.408C69.4753 17.408 68.9107 17.562 68.412 17.87C67.928 18.178 67.5467 18.6033 67.268 19.146C66.9893 19.6887 66.85 20.312 66.85 21.016C66.85 21.72 66.9893 22.3433 67.268 22.886C67.5467 23.4287 67.928 23.854 68.412 24.162C68.9107 24.47 69.4753 24.624 70.106 24.624C70.7953 24.624 71.3967 24.4407 71.91 24.074C72.4233 23.7073 72.79 23.216 73.01 22.6L75.54 23.744C75.3053 24.4187 74.924 25.0273 74.396 25.57C73.868 26.098 73.2373 26.516 72.504 26.824C71.7707 27.1173 70.9713 27.264 70.106 27.264ZM82.8308 27.264C81.6428 27.264 80.5721 26.9927 79.6188 26.45C78.6801 25.8927 77.9394 25.1447 77.3968 24.206C76.8541 23.2527 76.5828 22.182 76.5828 20.994C76.5828 19.806 76.8541 18.7427 77.3968 17.804C77.9394 16.8653 78.6801 16.1247 79.6188 15.582C80.5721 15.0393 81.6428 14.768 82.8308 14.768C83.6814 14.768 84.4734 14.922 85.2068 15.23C85.9401 15.5233 86.5708 15.934 87.0988 16.462C87.6414 16.9753 88.0301 17.5913 88.2648 18.31L85.7348 19.41C85.5148 18.8087 85.1408 18.3247 84.6128 17.958C84.0994 17.5913 83.5054 17.408 82.8308 17.408C82.2001 17.408 81.6354 17.562 81.1368 17.87C80.6528 18.178 80.2714 18.6033 79.9928 19.146C79.7141 19.6887 79.5748 20.312 79.5748 21.016C79.5748 21.72 79.7141 22.3433 79.9928 22.886C80.2714 23.4287 80.6528 23.854 81.1368 24.162C81.6354 24.47 82.2001 24.624 82.8308 24.624C83.5201 24.624 84.1214 24.4407 84.6348 24.074C85.1481 23.7073 85.5148 23.216 85.7348 22.6L88.2648 23.744C88.0301 24.4187 87.6488 25.0273 87.1208 25.57C86.5928 26.098 85.9621 26.516 85.2288 26.824C84.4954 27.1173 83.6961 27.264 82.8308 27.264Z" fill="#491361"/>
<circle cx="61" cy="25.4784" r="2" fill="url(#paint0_linear_4001_679)"/>
<defs>
<linearGradient id="paint0_linear_4001_679" x1="59.8312" y1="24.163" x2="62.189" y2="26.946" gradientUnits="userSpaceOnUse">
<stop stop-color="#FFB931"/>
<stop offset="1" stop-color="#EF4E1B"/>
</linearGradient>
</defs>
</svg>
