<svg width="32" height="32" viewBox="0 0 32 32" fill="none" xmlns="http://www.w3.org/2000/svg">
<path fill-rule="evenodd" clip-rule="evenodd" d="M17.2621 19.5214C17.2621 19.5214 20.9218 9.46505 22.0273 6.42904C22.1187 6.17763 22.2852 5.96045 22.5043 5.80699C22.7234 5.65353 22.9845 5.57124 23.252 5.57129H27.5974C27.7263 5.57132 27.8523 5.60956 27.9595 5.68118C28.0666 5.7528 28.1501 5.85458 28.1995 5.97367C28.2488 6.09275 28.2617 6.22378 28.2366 6.35019C28.2114 6.47661 28.1494 6.59273 28.0582 6.68389L26.5637 8.17843V23.8213L28.0582 25.3158C28.1494 25.407 28.2114 25.5231 28.2366 25.6495C28.2617 25.7759 28.2488 25.9069 28.1995 26.026C28.1501 26.1451 28.0666 26.2469 27.9595 26.3185C27.8523 26.3901 27.7263 26.4284 27.5974 26.4284H20.3157C20.1868 26.4284 20.0608 26.3901 19.9536 26.3185C19.8465 26.2469 19.763 26.1451 19.7136 26.026C19.6643 25.9069 19.6514 25.7759 19.6766 25.6495C19.7017 25.5231 19.7637 25.407 19.8549 25.3158L21.3494 23.8213V12.1022C21.3494 12.1022 17.3501 23.0906 16.3567 25.8203C16.2918 25.9985 16.1735 26.1525 16.0181 26.2612C15.8627 26.37 15.6776 26.4284 15.4879 26.4284H15.4873C15.2917 26.4285 15.1003 26.3722 14.9359 26.2663C14.7716 26.1605 14.6412 26.0094 14.5604 25.8314L8.31372 12.0891V21.2141C8.31372 21.2141 10.0031 23.9177 10.9495 25.4312C11.0112 25.5298 11.0453 25.6432 11.0484 25.7595C11.0514 25.8758 11.0233 25.9908 10.9669 26.0926C10.9105 26.1943 10.8279 26.2792 10.7276 26.3382C10.6274 26.3973 10.5132 26.4284 10.3968 26.4284H4.40301C4.28196 26.4284 4.16331 26.3947 4.06034 26.3311C3.95738 26.2674 3.87416 26.1764 3.82003 26.0681C3.7659 25.9598 3.74298 25.8386 3.75385 25.7181C3.76473 25.5975 3.80895 25.4824 3.88158 25.3856C5.02285 23.8636 7.01015 21.2141 7.01015 21.2141V9.482C7.01015 9.482 5.60685 7.79844 4.64221 6.64022C4.56295 6.54505 4.51244 6.42928 4.4966 6.30645C4.48075 6.18362 4.50023 6.05881 4.55276 5.94666C4.60528 5.8345 4.68867 5.73962 4.79317 5.67314C4.89766 5.60667 5.01893 5.57134 5.14278 5.57129H10.0814C10.3316 5.5713 10.5766 5.64333 10.7871 5.77878C10.9975 5.91423 11.1646 6.10738 11.2683 6.33518C12.594 9.25192 17.2621 19.5214 17.2621 19.5214Z" fill="#491361"/>
</svg>
