<svg width="136" height="48" viewBox="0 0 136 48" fill="none" xmlns="http://www.w3.org/2000/svg">
<path d="M97.9864 23.996C97.9864 27.0625 100.267 29.5947 103.218 29.9646H103.226V27.605C102.924 27.5721 102.622 27.5063 102.327 27.4076C102.185 27.3633 102.044 27.3093 101.907 27.2465C101.713 27.1575 101.527 27.0515 101.354 26.9309L100.88 26.5939C100.815 26.5446 100.807 26.4623 100.848 26.3965L101.51 25.4428C101.53 25.4153 101.556 25.3978 101.585 25.3898C101.624 25.3787 101.668 25.3861 101.706 25.4099L102.18 25.7469C102.223 25.7762 102.266 25.8037 102.311 25.8299C102.366 25.8624 102.423 25.8926 102.481 25.9202C102.575 25.9648 102.672 26.0034 102.769 26.0346C102.916 26.084 103.071 26.1253 103.226 26.1498V24.6371C102.368 24.4727 101.485 24.0947 101.044 23.33C100.856 23.0174 100.774 22.6559 100.807 22.294C100.839 21.9325 100.987 21.5954 101.215 21.3158C101.698 20.724 102.458 20.4524 103.218 20.3705V15.75L101.649 18.4466C99.4988 19.359 97.9864 21.4967 97.9864 23.996Z" fill="url(#paint0_linear_47_3651)"/>
<path d="M103.219 21.8338C102.859 21.8912 102.516 22.0063 102.319 22.2447C102.279 22.294 102.238 22.3682 102.229 22.4337C102.225 22.4699 102.23 22.5062 102.242 22.5411C102.251 22.5696 102.264 22.5971 102.279 22.623C102.358 22.7626 102.492 22.8754 102.652 22.9647C102.737 23.0121 102.83 23.053 102.927 23.0879C103.022 23.1222 103.12 23.1507 103.219 23.1739V21.8338Z" fill="url(#paint1_linear_47_3651)"/>
<path d="M104.592 18.019C107.6 18.3315 109.955 20.8881 109.955 24.004C109.955 26.561 108.361 28.7477 106.121 29.6192L104.592 32.25V27.6134C105.311 27.5147 106.015 27.2431 106.472 26.6842C106.701 26.4046 106.848 26.0675 106.881 25.706C106.914 25.3441 106.832 24.9826 106.644 24.67C106.227 23.9466 105.41 23.5602 104.592 23.3874V21.8747C104.707 21.8996 104.813 21.9325 104.919 21.9654C105.123 22.0312 105.328 22.1295 105.508 22.2531L105.982 22.5901C106.019 22.6136 106.062 22.621 106.101 22.6106C106.13 22.6028 106.157 22.5854 106.178 22.5572L106.84 21.6035C106.881 21.5377 106.873 21.4554 106.807 21.4061L106.333 21.0691C106.221 20.9905 106.102 20.918 105.98 20.8525C105.782 20.7465 105.573 20.6582 105.361 20.5924C105.107 20.5101 104.846 20.4524 104.584 20.4114V18.019H104.592Z" fill="url(#paint2_linear_47_3651)"/>
<path d="M104.592 26.1498C104.903 26.084 105.189 25.9688 105.36 25.7553C105.401 25.706 105.442 25.6318 105.45 25.5663C105.458 25.5002 105.434 25.4348 105.401 25.3854C105.254 25.1303 104.927 24.9661 104.592 24.8674V26.1498Z" fill="url(#paint3_linear_47_3651)"/>
<path d="M9.92928 22.7794C9.37339 21.8012 8.55588 21.2584 7.41136 21.2584C5.92357 21.2584 4.76272 22.4424 4.75452 24.0208C4.75452 25.6486 5.9399 26.7913 7.48497 26.7913C8.67848 26.7913 9.52873 26.1172 10.0192 25.2706L12.3899 26.9806C11.4007 28.5591 9.82301 29.7263 7.35416 29.7263C4.16597 29.7263 1.54999 27.3093 1.54999 24.0044C1.54999 20.6092 4.21504 18.2825 7.40324 18.2825C9.68407 18.2825 11.3271 19.31 12.3818 21.0284L9.92928 22.7794Z" fill="url(#paint4_linear_47_3651)"/>
<path d="M29.3698 25.5459L33.1466 18.5084H29.8276L27.8166 22.6438L25.8546 18.5084H22.4456L26.2226 25.5046V29.5003H29.3698V25.5459Z" fill="url(#paint5_linear_47_3651)"/>
<path fill-rule="evenodd" clip-rule="evenodd" d="M43.2023 22.4874C43.2023 24.847 41.6818 26.7215 38.9268 26.7215H37.3164V29.4919H34.1772V18.5084H39.2947C41.878 18.5084 43.2023 20.3252 43.2023 22.4874ZM39.9978 22.619C39.9978 21.7968 39.5318 21.3037 38.5916 21.3037H37.3164V23.9345H38.5916C39.4582 23.9345 39.9978 23.4495 39.9978 22.619Z" fill="url(#paint6_linear_47_3651)"/>
<path d="M53.8021 18.5081V21.5911H50.445V29.4916H47.3058V21.5911H43.9487V18.5081H53.8021Z" fill="url(#paint7_linear_47_3651)"/>
<path fill-rule="evenodd" clip-rule="evenodd" d="M20.6949 26.0299C21.8379 25.277 22.4456 23.9792 22.4456 22.4874C22.4456 20.3252 21.1213 18.5084 18.5381 18.5084H13.4205V29.4919H16.5597V26.7215H17.696L19.2286 29.4919H22.6101L20.6949 26.0299ZM17.835 21.3037C18.7752 21.3037 19.2411 21.7968 19.2411 22.619C19.2411 23.4495 18.7016 23.9345 17.835 23.9345H16.5597V21.3037H17.835Z" fill="url(#paint8_linear_47_3651)"/>
<path d="M84.8143 22.7599C84.2584 21.7817 83.441 21.2389 82.2964 21.2389C80.8086 21.2389 79.6478 22.4229 79.6314 23.9768C79.6314 25.6046 80.8168 26.7473 82.3619 26.7473C83.5554 26.7473 84.4056 26.0732 84.8961 25.2263L87.2749 26.9612C86.2858 28.5396 84.708 29.7068 82.2393 29.7068C79.051 29.7068 76.435 27.2898 76.435 23.9849C76.435 20.5897 79.1001 18.263 82.2883 18.263C84.5691 18.263 86.2122 19.2906 87.2668 21.009L84.8143 22.7599Z" fill="url(#paint9_linear_47_3651)"/>
<path fill-rule="evenodd" clip-rule="evenodd" d="M60.5923 18.31C57.4041 18.31 54.6573 20.5894 54.6573 23.9849C54.6573 27.2898 57.2732 29.7068 60.4615 29.7068H60.7231C63.9113 29.7068 66.5272 27.2898 66.5272 23.9849C66.5272 20.5894 63.7805 18.31 60.5923 18.31ZM57.8619 24.0013C57.8701 22.4229 59.1045 21.2738 60.5923 21.2738C62.0801 21.2738 63.3145 22.4229 63.3227 24.0013C63.3227 25.6291 62.1374 26.7718 60.5923 26.7718C59.0473 26.7718 57.8619 25.6291 57.8619 24.0013Z" fill="url(#paint10_linear_47_3651)"/>
<path d="M97.3074 29.493H88.6295V18.5097H91.7687V26.698H97.3074V29.493Z" fill="url(#paint11_linear_47_3651)"/>
<path d="M111.172 24.142V18.5094H114.407V24.142C114.407 25.4139 115.418 26.4452 116.665 26.4452C117.912 26.4452 118.923 25.4139 118.923 24.142V18.5094H122.158V24.142C122.158 27.2368 119.699 29.7454 116.665 29.7454C113.631 29.7454 111.172 27.2368 111.172 24.142Z" fill="url(#paint12_linear_47_3651)"/>
<path fill-rule="evenodd" clip-rule="evenodd" d="M123.794 18.5047V29.7112H128.807C131.84 29.7112 134.3 27.2025 134.3 24.1078C134.3 21.0133 131.84 18.5047 128.807 18.5047H123.794ZM127.03 26.4113H128.807C130.054 26.4113 131.065 25.38 131.065 24.1081C131.065 22.8362 130.054 21.8049 128.807 21.8049H127.03V26.4113Z" fill="url(#paint13_linear_47_3651)"/>
<path d="M67.2641 27.1555V29.5044H75.2239V26.3834H72.0777L73.1946 25.1125C73.8134 24.4045 74.2643 23.7986 74.5474 23.2947C74.841 22.7905 74.9879 22.2007 74.9879 21.5249C74.9879 20.4202 74.5999 19.5568 73.8238 18.9347C73.0582 18.3019 72.1354 17.9857 71.0552 17.9857C70.1743 17.9857 69.372 18.2163 68.6484 18.6776C67.9353 19.1385 67.3952 19.8142 67.0282 20.7045L69.7968 22.249C70.0799 21.4873 70.5151 21.1067 71.1024 21.1067C71.3436 21.1067 71.5271 21.1711 71.653 21.2997C71.7788 21.4178 71.8418 21.5679 71.8418 21.7502C71.8418 21.8254 71.826 21.9002 71.7946 21.9754C71.7736 22.0399 71.7474 22.104 71.7159 22.1685C71.6949 22.2222 71.6425 22.297 71.5586 22.3937C71.4852 22.4796 71.4223 22.5491 71.3698 22.6028C71.3279 22.6566 71.244 22.7475 71.1181 22.8764C71.0028 23.005 70.9136 23.1071 70.8507 23.1819L67.2641 27.1555Z" fill="url(#paint14_linear_47_3651)"/>
<defs>
<linearGradient id="paint0_linear_47_3651" x1="8.05331" y1="19.875" x2="126.832" y2="45.8426" gradientUnits="userSpaceOnUse">
<stop stop-color="#B04AFF"/>
<stop offset="1" stop-color="#FF814A"/>
</linearGradient>
<linearGradient id="paint1_linear_47_3651" x1="8.05331" y1="19.875" x2="126.832" y2="45.8426" gradientUnits="userSpaceOnUse">
<stop stop-color="#B04AFF"/>
<stop offset="1" stop-color="#FF814A"/>
</linearGradient>
<linearGradient id="paint2_linear_47_3651" x1="8.05331" y1="19.875" x2="126.832" y2="45.8426" gradientUnits="userSpaceOnUse">
<stop stop-color="#B04AFF"/>
<stop offset="1" stop-color="#FF814A"/>
</linearGradient>
<linearGradient id="paint3_linear_47_3651" x1="8.05331" y1="19.875" x2="126.832" y2="45.8426" gradientUnits="userSpaceOnUse">
<stop stop-color="#B04AFF"/>
<stop offset="1" stop-color="#FF814A"/>
</linearGradient>
<linearGradient id="paint4_linear_47_3651" x1="8.05331" y1="19.875" x2="126.832" y2="45.8426" gradientUnits="userSpaceOnUse">
<stop stop-color="#B04AFF"/>
<stop offset="1" stop-color="#FF814A"/>
</linearGradient>
<linearGradient id="paint5_linear_47_3651" x1="8.05331" y1="19.875" x2="126.832" y2="45.8426" gradientUnits="userSpaceOnUse">
<stop stop-color="#B04AFF"/>
<stop offset="1" stop-color="#FF814A"/>
</linearGradient>
<linearGradient id="paint6_linear_47_3651" x1="8.05331" y1="19.875" x2="126.832" y2="45.8426" gradientUnits="userSpaceOnUse">
<stop stop-color="#B04AFF"/>
<stop offset="1" stop-color="#FF814A"/>
</linearGradient>
<linearGradient id="paint7_linear_47_3651" x1="8.05331" y1="19.875" x2="126.832" y2="45.8426" gradientUnits="userSpaceOnUse">
<stop stop-color="#B04AFF"/>
<stop offset="1" stop-color="#FF814A"/>
</linearGradient>
<linearGradient id="paint8_linear_47_3651" x1="8.05331" y1="19.875" x2="126.832" y2="45.8426" gradientUnits="userSpaceOnUse">
<stop stop-color="#B04AFF"/>
<stop offset="1" stop-color="#FF814A"/>
</linearGradient>
<linearGradient id="paint9_linear_47_3651" x1="8.05331" y1="19.875" x2="126.832" y2="45.8426" gradientUnits="userSpaceOnUse">
<stop stop-color="#B04AFF"/>
<stop offset="1" stop-color="#FF814A"/>
</linearGradient>
<linearGradient id="paint10_linear_47_3651" x1="8.05331" y1="19.875" x2="126.832" y2="45.8426" gradientUnits="userSpaceOnUse">
<stop stop-color="#B04AFF"/>
<stop offset="1" stop-color="#FF814A"/>
</linearGradient>
<linearGradient id="paint11_linear_47_3651" x1="8.05331" y1="19.875" x2="126.832" y2="45.8426" gradientUnits="userSpaceOnUse">
<stop stop-color="#B04AFF"/>
<stop offset="1" stop-color="#FF814A"/>
</linearGradient>
<linearGradient id="paint12_linear_47_3651" x1="8.05331" y1="19.875" x2="126.832" y2="45.8426" gradientUnits="userSpaceOnUse">
<stop stop-color="#B04AFF"/>
<stop offset="1" stop-color="#FF814A"/>
</linearGradient>
<linearGradient id="paint13_linear_47_3651" x1="8.05331" y1="19.875" x2="126.832" y2="45.8426" gradientUnits="userSpaceOnUse">
<stop stop-color="#B04AFF"/>
<stop offset="1" stop-color="#FF814A"/>
</linearGradient>
<linearGradient id="paint14_linear_47_3651" x1="8.05331" y1="19.875" x2="126.832" y2="45.8426" gradientUnits="userSpaceOnUse">
<stop stop-color="#B04AFF"/>
<stop offset="1" stop-color="#FF814A"/>
</linearGradient>
</defs>
</svg>
