<svg width="136" height="48" viewBox="0 0 136 48" fill="none" xmlns="http://www.w3.org/2000/svg">
<path d="M111.498 13.1191L105.962 11.8339L104.973 11.4385L79.5665 11.6362V23.8948L111.498 23.9937V13.1191Z" fill="white"/>
<path d="M101.118 22.8073C101.44 21.9541 101.329 20.9942 100.821 20.2369C100.301 19.6131 99.5539 19.2217 98.7452 19.1495L81.5436 18.9518C81.4448 18.9518 81.3459 18.8529 81.247 18.8529C81.2006 18.8183 81.1729 18.7629 81.1729 18.7046C81.1729 18.6463 81.2006 18.5909 81.247 18.5563C81.3459 18.3586 81.4448 18.2597 81.6425 18.2597L98.943 18.062C101.176 17.8139 103.109 16.3745 103.985 14.3054L104.973 11.735C104.973 11.6361 105.072 11.5373 104.973 11.4384C103.823 6.31352 99.2336 2.63989 93.9802 2.63989C89.1786 2.63989 84.8801 5.70949 83.3231 10.2521C82.29 9.51461 81.0296 9.16464 79.7641 9.2635C77.3806 9.52943 75.4825 11.4275 75.2166 13.8111C75.1504 14.4052 75.184 15.0073 75.3155 15.5905C71.4322 15.6983 68.2954 18.9221 68.2964 22.8073C68.2806 23.1721 68.3132 23.5389 68.3953 23.8948C68.4042 24.0539 68.5327 24.1824 68.6919 24.1913H100.426C100.624 24.1913 100.821 24.0925 100.821 23.8948L101.118 22.8073Z" fill="#F48120"/>
<path d="M106.555 11.7349H106.061C105.962 11.7349 105.863 11.8337 105.764 11.9326L105.072 14.3052C104.75 15.1584 104.861 16.1183 105.369 16.8756C105.889 17.4994 106.636 17.8909 107.445 17.963L111.103 18.1608C111.202 18.1608 111.3 18.2596 111.399 18.2596C111.446 18.2942 111.473 18.3496 111.473 18.4079C111.473 18.4662 111.446 18.5216 111.399 18.5562C111.3 18.7539 111.202 18.8528 111.004 18.8528L107.247 19.0505C105.014 19.2986 103.081 20.738 102.205 22.8072L102.008 23.6969C101.909 23.7958 102.008 23.9935 102.205 23.9935H115.255C115.267 23.9955 115.28 23.9964 115.291 23.9964C115.436 23.9964 115.554 23.8778 115.554 23.7335C115.554 23.7216 115.553 23.7088 115.551 23.6969C115.787 22.8596 115.919 21.9965 115.947 21.1265C115.914 15.9868 111.695 11.7675 106.555 11.7349Z" fill="#FAAD3F"/>
<path d="M117.232 29.5297C116.744 29.5297 116.342 29.1284 116.342 28.64C116.342 28.1516 116.744 27.7503 117.232 27.7503C117.72 27.7503 118.122 28.1516 118.122 28.64V28.644C118.122 29.1294 117.721 29.5297 117.236 29.5297C117.234 29.5297 117.233 29.5297 117.232 29.5297ZM117.232 27.948C116.852 27.948 116.54 28.2604 116.54 28.64C116.54 29.0196 116.852 29.332 117.232 29.332C117.612 29.332 117.924 29.0196 117.924 28.64C117.924 28.6341 117.924 28.6291 117.924 28.6232C117.924 28.2525 117.62 27.948 117.249 27.948C117.243 27.948 117.238 27.948 117.232 27.948ZM117.628 29.1343H117.43L117.232 28.8377H117.034V29.1343H116.837V28.2446H117.331C117.343 28.2426 117.356 28.2416 117.368 28.2416C117.512 28.2416 117.63 28.3602 117.63 28.5046C117.63 28.5164 117.629 28.5293 117.628 28.5411C117.628 28.64 117.529 28.7389 117.43 28.8377L117.628 29.1343ZM117.331 28.64C117.43 28.64 117.43 28.64 117.43 28.5411C117.43 28.5402 117.43 28.5402 117.43 28.5392C117.43 28.4858 117.386 28.4423 117.333 28.4423C117.332 28.4423 117.332 28.4423 117.331 28.4423H117.034V28.7389H117.331V28.64ZM28.6537 27.7503H30.8286V33.6819H34.5852V35.5602H28.6537V27.7503ZM36.859 31.6058C36.859 29.3795 38.6909 27.5476 40.9172 27.5476C40.9815 27.5476 41.0457 27.5496 41.11 27.5526C41.1693 27.5496 41.2296 27.5486 41.2889 27.5486C43.4688 27.5486 45.2631 29.3429 45.2631 31.5228C45.2631 31.5504 45.2631 31.5781 45.2621 31.6058C45.2621 33.8321 43.4302 35.664 41.2039 35.664C41.1396 35.664 41.0754 35.662 41.0111 35.6591C40.9716 35.66 40.9311 35.661 40.8915 35.661C38.679 35.661 36.859 33.841 36.859 31.6285C36.859 31.6206 36.859 31.6137 36.859 31.6058ZM43.0872 31.6058C43.0902 31.5584 43.0921 31.5099 43.0921 31.4625C43.0921 30.3661 42.2054 29.4576 41.11 29.4309C40.0097 29.4843 39.1328 30.4047 39.1328 31.5069C39.1328 32.6092 40.0097 33.5296 41.11 33.583C42.2963 33.7807 43.0872 32.7921 43.0872 31.6058ZM47.9313 32.1001V27.7503H50.1062V32.1001C50.1062 33.1876 50.6994 33.7807 51.5891 33.7807C51.6277 33.7837 51.6653 33.7857 51.7038 33.7857C52.4631 33.7857 53.0869 33.1609 53.0869 32.4026C53.0869 32.3344 53.0819 32.2662 53.072 32.199V27.7503H55.2469V32.1001C55.2469 34.6705 53.7641 35.7579 51.5891 35.7579C49.3154 35.6591 47.9313 34.5716 47.9313 32.1001ZM58.5093 27.7503H61.574C64.3421 27.7503 66.0227 29.332 66.0227 31.6058C66.0227 33.8796 64.3421 35.5602 61.574 35.5602H58.6082V27.7503H58.5093ZM61.574 33.583C61.6363 33.5889 61.6995 33.5919 61.7628 33.5919C62.8522 33.5919 63.7489 32.6952 63.7489 31.6058C63.7489 30.5164 62.8522 29.6197 61.7628 29.6197C61.6995 29.6197 61.6363 29.6227 61.574 29.6286H60.6842V33.583H61.574ZM69.0873 27.7503H75.3155V29.6286H71.2622V30.9138H74.9201V32.6933H71.2622V35.5602H69.0873V27.7503ZM78.3802 27.7503H80.5551V33.6819H84.3117V35.5602H78.3802V27.7503ZM89.9468 27.6514H92.1217L95.4829 35.5602H93.1103L92.5171 34.1762H89.4525L88.8593 35.5602H86.5855L89.9468 27.6514ZM91.924 32.4955L91.0342 30.3206L90.1445 32.4955H91.924ZM98.251 27.7503H101.909C102.852 27.6741 103.785 27.9964 104.479 28.64C104.924 29.1195 105.171 29.7502 105.171 30.4037C105.171 31.4437 104.546 32.3868 103.589 32.7921L105.468 35.5602H102.996L101.414 33.1876H100.426V35.5602H98.251V27.7503ZM101.81 31.5069C102.502 31.5069 102.996 31.1115 102.996 30.6172C102.996 30.024 102.502 29.7275 101.81 29.7275H100.426V31.6058H101.81V31.5069ZM108.236 27.7503H114.563V29.5297H110.411V30.7161H114.167V32.4955H110.411V33.6819H114.662V35.5602H108.236V27.7503ZM23.9084 32.5944C23.6039 33.3072 22.904 33.7738 22.1289 33.7807C21.0286 33.7273 20.1517 32.807 20.1517 31.7047C20.1517 30.6024 21.0286 29.682 22.1289 29.6286C22.9534 29.6444 23.6939 30.1506 24.0072 30.9138H26.281C25.8806 28.9662 24.116 27.5792 22.1289 27.6514C22.0844 27.6504 22.0399 27.6494 21.9954 27.6494C19.7592 27.6494 17.9115 29.4694 17.8779 31.7047V31.7274C17.8779 33.9399 19.6979 35.7599 21.9104 35.7599C21.95 35.7599 21.9905 35.7589 22.03 35.7579C23.9667 35.7708 25.6809 34.4648 26.1822 32.5944H23.9084Z" fill="#404041"/>
</svg>
