<svg width="136" height="48" viewBox="0 0 136 48" fill="none" xmlns="http://www.w3.org/2000/svg">
<path fill-rule="evenodd" clip-rule="evenodd" d="M19.2808 20.8569C20.6927 20.8569 21.7012 21.4981 22.3869 22.6543L25.4124 20.5848C24.1114 18.5542 22.0844 17.3397 19.2707 17.3397C15.3376 17.3397 12.05 20.0893 12.05 24.102C12.05 28.0078 15.2771 30.8644 19.2102 30.8644C22.2558 30.8644 24.2022 29.4847 25.4225 27.6192L22.4979 25.5983C21.8928 26.599 20.844 27.3957 19.3716 27.3957C17.4655 27.3957 16.0032 26.0452 16.0032 24.1214C16.0133 22.256 17.4454 20.8569 19.2808 20.8569ZM32.976 31.049C29.3354 30.6117 26.5217 27.6192 26.5217 23.9951C26.5217 21.0415 28.3874 18.5153 31.0397 17.4368L32.976 14.25V19.7104C32.0381 19.8075 31.1002 20.1282 30.5052 20.8277C30.2229 21.1581 30.0413 21.5564 30.001 21.9839C29.9606 22.4114 30.0615 22.8389 30.2934 23.2081C30.838 24.1117 31.9272 24.5587 32.9861 24.753V26.5407C32.7945 26.5116 32.6029 26.463 32.4213 26.4047C32.1692 26.327 31.9171 26.2104 31.6952 26.0646L31.1103 25.6663C31.0296 25.6177 30.9288 25.6274 30.8683 25.7052L30.0514 26.8322C30.001 26.9099 30.0111 27.0071 30.0917 27.0654L30.6767 27.4638C31.0397 27.7067 31.4532 27.901 31.8768 28.0273C32.2398 28.1439 32.613 28.2216 32.9861 28.2605V31.049H32.976ZM32.976 21.4398C32.5323 21.5078 32.1087 21.6439 31.8667 21.9256C31.8163 21.9839 31.7658 22.0714 31.7557 22.1491C31.7457 22.2268 31.7759 22.3046 31.8163 22.3726C32.018 22.7126 32.502 22.9167 32.976 23.0235V21.4398ZM34.6703 16.9316C38.3815 17.3008 41.2859 20.3225 41.2859 24.0049C41.2859 27.0265 39.3194 29.611 36.5561 30.6409L34.6703 33.75V28.2702C35.5577 28.1536 36.425 27.833 36.9898 27.1723C37.2722 26.8419 37.4537 26.4436 37.494 26.0161C37.5344 25.5886 37.4335 25.1611 37.2016 24.7919C36.6872 23.9368 35.6787 23.4802 34.6703 23.2762V21.4884C34.8115 21.5176 34.9426 21.5564 35.0737 21.5953C35.3258 21.673 35.5779 21.7896 35.7998 21.9354L36.3847 22.3337C36.4654 22.3823 36.5662 22.3726 36.6267 22.2948L37.4436 21.1678C37.494 21.0901 37.4839 20.9929 37.4033 20.9346L36.8183 20.5362C36.4553 20.2933 36.0418 20.099 35.6182 19.9727C35.3056 19.8756 34.9829 19.8075 34.6602 19.759V16.9316H34.6703ZM34.6703 26.5407C35.0535 26.463 35.4065 26.327 35.6182 26.0744C35.6687 26.0161 35.7191 25.9286 35.7292 25.8509C35.7393 25.7732 35.709 25.6954 35.6687 25.6371C35.4871 25.3359 35.0837 25.1416 34.6703 25.025V26.5407ZM119.927 30.6215H123.8V17.6312H119.927V22.5766H115.419V17.6312H111.547V30.6117H115.419V25.88H119.927V30.6215V30.6215ZM103.64 30.8644C107.261 30.8644 109.187 29.0669 109.187 26.6768C109.187 23.6065 106.474 23.0333 104.367 22.5863C103.025 22.3046 101.946 22.0519 101.946 21.2358C101.946 20.7791 102.36 20.3808 103.308 20.3808C104.82 20.3808 105.062 21.2164 105.103 21.8771H108.885C108.673 19.108 106.696 17.3883 103.378 17.3883C100.212 17.3883 98.1442 19.0594 98.1442 21.6147C98.1442 24.8793 101.19 25.4817 103.318 25.9772C104.457 26.2395 105.304 26.4922 105.304 27.0751C105.304 27.6484 104.699 27.9496 103.751 27.9496C102.339 27.9496 101.886 27.2306 101.825 26.4922H97.9929C98.1744 29.3098 100.141 30.8644 103.64 30.8644ZM91.0243 25.7052H88.2106L89.6225 21.2844L91.0243 25.7052ZM92.5975 30.6215H96.7323L92.2244 17.6312H87.2627L82.7346 30.6117H86.6475L87.2526 28.7171H91.9823L92.5975 30.6215ZM75.5642 20.8569C76.9761 20.8569 77.9846 21.4981 78.6704 22.6543L81.6958 20.5848C80.3949 18.5542 78.3678 17.3397 75.5542 17.3397C71.6211 17.3397 68.3334 20.0893 68.3334 24.102C68.3334 28.0078 71.5606 30.8644 75.4937 30.8644C78.5393 30.8644 80.4856 29.4847 81.7059 27.6192L78.7712 25.5691C78.1661 26.5699 77.1173 27.3666 75.6449 27.3666C73.7389 27.3666 72.2766 26.0161 72.2766 24.0923C72.2968 22.256 73.7288 20.8569 75.5642 20.8569ZM63.4826 30.6215V25.9578L68.1418 17.6409H64.0474L61.5665 22.528L59.1461 17.6409H54.9408L59.6 25.9092V30.6312H63.4826V30.6215ZM49.3437 27.3374C52.7423 27.3374 54.6181 25.1222 54.6181 22.3337C54.6181 19.7784 52.9843 17.6312 49.7975 17.6312H43.4844V30.6117H47.357V27.3374H49.3437ZM48.9302 20.9346C50.09 20.9346 50.6648 21.5176 50.6648 22.4892C50.6648 23.4705 49.9992 24.0437 48.9302 24.0437H47.357V20.9346H48.9302Z" fill="url(#paint0_linear_47_3649)"/>
<defs>
<linearGradient id="paint0_linear_47_3649" x1="12.05" y1="14.25" x2="92.4232" y2="75.1558" gradientUnits="userSpaceOnUse">
<stop stop-color="#4A349F"/>
<stop offset="1" stop-color="#4A63BD"/>
</linearGradient>
</defs>
</svg>
