<svg width="136" height="48" viewBox="0 0 136 48" fill="none" xmlns="http://www.w3.org/2000/svg">
<path d="M59.8497 31.6844L54.8195 17.3023C54.7614 17.093 54.6741 16.8538 54.6741 16.6146C54.6741 15.9867 55.1975 15.3887 55.9244 15.3887C56.5641 15.3887 56.9712 15.8073 57.1747 16.4352L61.3326 28.8439L65.5195 16.4053C65.7231 15.8073 66.1011 15.3887 66.7407 15.3887H66.857C67.5258 15.3887 67.9329 15.8073 68.1364 16.4053L72.2943 28.8439L76.5103 16.3754C76.6557 15.8372 77.0337 15.3887 77.7024 15.3887C78.4003 15.3887 78.9236 15.9568 78.9236 16.5847C78.9236 16.8239 78.8364 17.0631 78.7783 17.2724L73.719 31.6844C73.4573 32.4319 72.963 32.8206 72.3815 32.8206H72.2943C71.6546 32.8206 71.1603 32.4319 70.9568 31.6844L66.828 19.4551L62.6701 31.6844C62.4375 32.4319 61.9723 32.8206 61.3326 32.8206H61.2744C60.6057 32.8206 60.1114 32.4319 59.8497 31.6844ZM96.4856 16.6146C96.4856 15.9269 97.0381 15.3289 97.7068 15.3289C98.4046 15.3289 98.9571 15.897 98.9571 16.6146V19.5449C100.178 16.7043 102.882 15.3588 104.656 15.3588C105.383 15.3588 105.877 15.9269 105.877 16.6445C105.877 17.3322 105.441 17.8405 104.772 17.9302C101.574 18.3189 98.928 20.8007 98.928 25.7043V31.4751C98.928 32.1628 98.4046 32.7608 97.7068 32.7608C97.009 32.7608 96.4565 32.1927 96.4565 31.4751L96.4856 16.6146ZM113.786 32.9701C109.308 32.9701 105.674 29.412 105.674 24.1794V24.1196C105.674 19.2458 108.988 15.3289 113.466 15.3289C118.264 15.3289 120.997 19.3953 120.997 23.8804C120.997 24.5681 120.444 25.0465 119.863 25.0465H108.116C108.465 28.6944 110.936 30.7575 113.844 30.7575C115.85 30.7575 117.333 29.9502 118.525 28.7841C118.7 28.6346 118.932 28.485 119.223 28.485C119.805 28.485 120.299 28.9635 120.299 29.5615C120.299 29.8605 120.183 30.1595 119.921 30.3688C118.38 31.9535 116.548 32.9701 113.786 32.9701ZM118.613 23.1927C118.351 20.113 116.664 17.4518 113.437 17.4518C110.617 17.4518 108.465 19.9037 108.174 23.1927H118.613ZM78.9818 27.6777V27.6179C78.9818 24.0299 81.8603 22.1163 86.0473 22.1163C88.1698 22.1163 89.6527 22.4153 91.1356 22.8339V22.2359C91.1356 19.186 89.3038 17.6013 86.2217 17.6013C84.5644 17.6013 83.6049 17.8106 82.3837 18.3787C82.2383 18.4385 82.0639 18.4684 81.9476 18.4684C81.366 18.4684 80.8717 17.9601 80.8717 17.392C80.8717 16.8538 81.1043 16.5548 81.5405 16.3455C83.1688 15.6279 84.3899 15.3887 86.5125 15.3887C88.8386 15.3887 90.6413 16.0166 91.8625 17.2724C92.9965 18.4086 93.5489 20.0532 93.5489 22.2359V31.6246C93.5489 32.3422 93.0256 32.8804 92.3568 32.8804C91.659 32.8804 91.1938 32.3422 91.1938 31.6844V30.0698C90.0307 31.6246 88.1117 33 85.2041 33C82.0929 32.9701 78.9818 31.1462 78.9818 27.6777ZM91.1647 26.3621V24.7176C89.9435 24.3588 88.3152 24 86.309 24C83.1978 24 81.4823 25.3754 81.4823 27.5282V27.588C81.4823 29.711 83.4014 30.9668 85.6402 30.9668C88.6641 30.9668 91.1647 29.0532 91.1647 26.3621ZM15.0725 16.4352C14.52 15.2093 13.1825 14.6711 11.9322 15.2392C10.682 15.8073 10.2168 17.2425 10.7983 18.4684L16.032 30.1894C16.8461 32.0133 17.7184 33 19.3467 33C21.0912 33 21.8472 31.9535 22.6613 30.1894C22.6613 30.1894 27.2263 19.9336 27.2844 19.8439C27.3426 19.7243 27.488 19.3953 27.9532 19.3953C28.3603 19.3953 28.6801 19.7243 28.6801 20.1429V30.1595C28.6801 31.7143 29.5233 32.9701 31.1225 32.9701C32.7217 32.9701 33.594 31.7143 33.594 30.1595V21.9668C33.594 20.3821 34.6988 19.3654 36.2108 19.3654C37.7228 19.3654 38.7114 20.4419 38.7114 21.9668V30.1595C38.7114 31.7143 39.5546 32.9701 41.1537 32.9701C42.7529 32.9701 43.6252 31.7143 43.6252 30.1595V21.9668C43.6252 20.3821 44.7301 19.3654 46.213 19.3654C47.725 19.3654 48.7135 20.4419 48.7135 21.9668V30.1595C48.7135 31.7143 49.5567 32.9701 51.1559 32.9701C52.7551 32.9701 53.6274 31.7143 53.6274 30.1595V20.8306C53.6274 17.392 50.9524 15 47.725 15C44.4975 15 42.4913 17.3023 42.4913 17.3023C41.4154 15.8671 39.9326 15 37.432 15C34.7861 15 32.4891 17.3023 32.4891 17.3023C31.4132 15.8671 29.5815 15 28.0695 15C25.7143 15 23.8825 16.0465 22.7486 18.7375L19.3757 26.8704L15.0725 16.4352ZM121.229 17.4518C121.229 16.2857 122.131 15.3289 123.265 15.3289C124.428 15.3289 125.3 16.2857 125.3 17.4219C125.3 18.588 124.399 19.5449 123.265 19.5449C122.102 19.5748 121.229 18.6179 121.229 17.4518ZM124.922 17.4518C124.922 16.495 124.224 15.7176 123.265 15.7176C122.334 15.7176 121.607 16.495 121.607 17.4518C121.607 18.3787 122.305 19.1561 123.265 19.1561C124.195 19.1561 124.922 18.3787 124.922 17.4518ZM122.48 16.6146C122.48 16.495 122.567 16.3754 122.712 16.3754H123.381C123.643 16.3754 123.846 16.4352 123.963 16.5847C124.079 16.7043 124.137 16.8538 124.137 17.0631C124.137 17.392 123.992 17.5714 123.73 17.691L124.021 18.0797C124.05 18.1395 124.079 18.1694 124.079 18.2591C124.079 18.3787 123.963 18.4684 123.875 18.4684C123.788 18.4684 123.701 18.4086 123.672 18.3488L123.236 17.8106H122.887V18.2591C122.887 18.3787 122.8 18.4684 122.683 18.4684C122.567 18.4684 122.451 18.3787 122.451 18.2591L122.48 16.6146ZM123.352 17.3621C123.555 17.3621 123.672 17.2425 123.672 17.0631C123.672 16.8837 123.555 16.7641 123.323 16.7641H122.887V17.3621H123.352Z" fill="#696566"/>
</svg>
