<svg width="136" height="48" viewBox="0 0 136 48" fill="none" xmlns="http://www.w3.org/2000/svg">
<path fill-rule="evenodd" clip-rule="evenodd" d="M25.2799 23.0406H40.9944L39.0497 19.6825C38.6607 19.0121 37.9424 18.5986 37.1659 18.5986V18.5986H32.9971L36.5581 12.447L49.4634 34.7457L58.813 18.5986H53.668L49.4634 25.8612L36.5581 3.56152L25.2799 23.0406Z" fill="url(#paint0_linear_47_3635)"/>
<path fill-rule="evenodd" clip-rule="evenodd" d="M99.3749 21.252H102.319V18.3169H99.3749V21.252ZM91.4556 31.801C89.7351 31.801 88.3353 30.4058 88.3353 28.6904C88.3353 26.9754 89.7351 25.5797 91.4556 25.5797C93.1756 25.5797 94.5753 26.9754 94.5753 28.6904C94.5753 30.4058 93.1756 31.801 91.4556 31.801ZM91.4557 22.6446C90.2459 22.6446 89.1194 23.0012 88.1722 23.6115V18.3176H85.2285V34.4333H88.1722V33.7687C89.1194 34.3795 90.2459 34.7361 91.4557 34.7361C94.7991 34.7361 97.5185 32.0239 97.5185 28.6903C97.5185 25.3568 94.7991 22.6446 91.4557 22.6446ZM110.72 22.7124V24.1911C110.72 24.9951 110.066 25.6464 109.26 25.6464H107.777V29.3907C107.777 30.5651 108.731 31.517 109.909 31.517H110.72V34.4515H109.909C107.105 34.4515 104.833 32.1853 104.833 29.3907V18.3178H106.317C107.123 18.3178 107.777 18.9696 107.777 19.7736V22.7124H110.72ZM72.3544 34.4516H82.988V32.9336C82.988 32.1514 82.3513 31.516 81.5658 31.516H77.7331L83.3855 22.7125H73.0754V25.647H78.0069L72.3544 34.4516ZM102.318 34.465H99.3742V22.712H102.318V34.465ZM64.073 23.8836L62.0964 28.7082H65.9445L64.073 23.8836ZM71.3287 34.4517H69.5714C68.7287 34.4517 67.9726 33.9345 67.6678 33.1512L67.0317 31.5161H60.946L59.7437 34.4517H56.5642L62.7481 19.2305C62.9749 18.6776 63.5123 18.3179 64.11 18.3179C64.7178 18.3179 65.2643 18.6904 65.4831 19.255L71.3287 34.4517Z" fill="black"/>
<defs>
<linearGradient id="paint0_linear_47_3635" x1="42.0465" y1="3.56152" x2="42.0465" y2="34.7457" gradientUnits="userSpaceOnUse">
<stop stop-color="#18C994"/>
<stop offset="1" stop-color="#17875E"/>
</linearGradient>
</defs>
</svg>
