<svg width="136" height="48" viewBox="0 0 136 48" fill="none" xmlns="http://www.w3.org/2000/svg">
<path d="M22.1734 24.9951C22.1734 24.7816 22.2446 24.5681 22.3869 24.4258C21.8888 24.3547 21.4618 24.1412 21.4618 23.6431C21.4618 23.1449 21.8888 22.9314 22.3869 22.7891C22.1734 22.6468 22.1023 22.4333 22.1023 22.2198C22.1734 21.0813 24.5217 22.0775 24.5217 22.0775V24.9951C24.5217 25.0663 22.2446 26.0625 22.1734 24.9951Z" fill="url(#paint0_linear_47_3662)"/>
<path d="M22.4581 30.3323C22.4581 30.19 22.5292 30.0476 22.6004 29.9765C22.2446 29.9053 21.96 29.763 21.96 29.4072C21.96 29.0514 22.2446 28.9091 22.6004 28.8379C22.4581 28.7667 22.3869 28.6244 22.3869 28.4821C22.3869 27.6993 24.0236 28.411 24.0236 28.411V30.4034C24.0236 30.4034 22.4581 31.1151 22.4581 30.3323Z" fill="url(#paint1_linear_47_3662)"/>
<path d="M21.7465 17.808C21.8177 17.5945 22.0311 17.3811 22.2446 17.3099C21.6753 16.9541 21.3195 16.5271 21.6042 15.9579C21.8888 15.3886 22.4581 15.3174 23.0274 15.5309C22.8851 15.3174 22.8851 15.0328 23.0274 14.8193C23.5967 13.6096 25.7315 15.8867 25.7315 15.8867L25.3045 16.8829L25.2334 17.0253L24.7352 18.1638L24.6641 18.3062L24.2371 19.2312C24.3083 19.1601 21.2484 19.0889 21.7465 17.808Z" fill="url(#paint2_linear_47_3662)"/>
<path d="M25.8738 36.5231C25.8738 36.5231 21.8888 38.2309 19.754 36.5231L20.3944 35.3845H25.091C25.1622 35.3845 26.2296 35.598 26.2296 35.598L25.8738 36.5231Z" fill="#D6753E"/>
<path d="M33.4168 28.1261C33.9861 28.4819 35.4805 29.0512 34.9112 30.4745C34.6977 30.8303 34.4131 31.1861 34.1284 31.3995C33.6303 31.7553 34.0572 31.8977 34.3419 31.8265C34.6265 31.8265 38.1134 31.0437 36.4767 28.1261C36.1921 27.5569 34.84 26.4183 33.6303 26.6318C32.4205 26.8453 33.1322 27.9838 33.4168 28.1261Z" fill="url(#paint3_linear_47_3662)"/>
<path d="M24.0236 26.5607V30.0476C24.0236 30.0476 23.739 34.0325 21.3907 34.0325C21.3907 34.0325 17.3345 34.4595 16.6941 28.482C16.6941 28.482 16.4806 40.437 25.8026 36.1674L26.1584 38.1599L28.5068 35.1L32.4917 35.5269L33.9861 37.7329L34.1996 26.1337C34.1996 26.1337 41.458 27.13 42.7389 27.2723C42.7389 27.2723 45.3007 12.1151 35.7651 11.4746C23.1697 10.0514 24.0948 20.3697 24.0948 20.3697L24.0236 26.5607Z" fill="url(#paint4_linear_47_3662)"/>
<path d="M27.5106 23.4296C27.5817 21.2236 28.0087 20.512 28.5068 20.512C29.005 20.512 29.5031 22.3621 29.5031 24.7104L27.5106 23.4296Z" fill="#EDEDBB"/>
<path d="M32.7053 20.0851C32.7053 20.5833 33.4881 20.9391 34.4843 20.9391C35.4806 20.9391 36.2634 20.5121 36.2634 20.0851C36.2634 19.6582 35.4806 19.2312 34.4843 19.2312C33.4881 19.2312 32.7053 19.587 32.7053 20.0851Z" fill="#D69547"/>
<path d="M38.1846 19.9426C38.1134 20.1561 38.3981 20.4408 38.825 20.5831C39.252 20.6543 39.6078 20.5831 39.6789 20.2984C39.7501 20.0138 39.3943 19.7292 39.0385 19.658C38.6115 19.5868 38.1846 19.658 38.1846 19.9426Z" fill="#D69547"/>
<path d="M30.9974 20.7967C30.9974 20.939 31.1397 21.1525 31.4955 21.2237C31.7802 21.2948 32.0648 21.2237 32.136 21.0813C32.136 20.939 31.9937 20.7255 31.6379 20.6544C31.2821 20.512 30.9974 20.5832 30.9974 20.7967Z" fill="#D69547"/>
<path d="M34.4843 21.6505C34.4132 21.7928 34.6266 22.0063 34.9113 22.0774C35.1959 22.1486 35.4806 22.0774 35.5517 21.9351C35.6229 21.7928 35.4094 21.5793 35.1248 21.5081C34.8401 21.437 34.4843 21.5081 34.4843 21.6505Z" fill="#D69547"/>
<path d="M29.7165 28.1261C29.7165 28.1261 29.2895 29.407 28.649 29.7628C29.076 30.3321 29.8588 30.9013 30.7127 29.6205C30.2857 29.1935 30.0011 28.6954 29.7876 28.1261C29.7876 28.1261 31.1397 30.9725 32.5629 28.0549C32.5629 28.0549 31.8513 30.4032 30.7839 29.6205C30.4281 30.4744 29.5741 31.613 28.5779 29.6916C28.1509 29.9051 27.5816 29.5493 26.9412 28.0549C26.9412 28.1973 28.2932 31.1148 29.7165 28.1261Z" fill="#D6721E"/>
<path d="M35.1247 14.3923C35.0536 12.8979 33.8438 11.6882 32.2783 11.7593C31.9225 11.7593 31.5667 11.8305 31.282 11.9728C30.2858 12.3998 29.6453 13.396 29.5742 14.4635C29.5742 15.3885 30.0011 16.2425 30.7839 16.7406C32.2071 17.5234 33.9861 17.0252 34.7689 15.602C34.7689 15.5309 34.8401 15.5309 34.8401 15.4597C35.0536 15.1039 35.1247 14.7481 35.1247 14.3923Z" fill="#D6753E"/>
<path d="M34.9112 14.1076C34.8401 12.6843 33.7015 11.5458 32.2783 11.6169C31.9225 11.6169 31.6378 11.6881 31.3532 11.8304C30.4281 12.2574 29.7876 13.1113 29.7876 14.1787C29.7165 15.0327 30.2146 15.8866 30.9262 16.3847C32.2783 17.1675 33.915 16.6693 34.6977 15.3173C34.6977 15.2461 34.7689 15.2461 34.7689 15.175C34.8401 14.8192 34.9112 14.4634 34.9112 14.1076Z" fill="#EDEDBB"/>
<path d="M31.2108 14.6768C31.2108 15.2461 31.6378 15.6731 32.2071 15.6731C32.7763 15.6731 33.2033 15.2461 33.2033 14.6768C33.2033 14.1075 32.7763 13.6806 32.2071 13.6806C31.7089 13.6094 31.282 14.0364 31.2108 14.6768C31.2108 14.6057 31.2108 14.6057 31.2108 14.6768Z" fill="#9E512B"/>
<path d="M31.5667 14.5347C31.5667 14.8905 31.8513 15.1751 32.2071 15.1751C32.5629 15.1751 32.8476 14.8905 32.8476 14.5347C32.8476 14.1789 32.5629 13.8942 32.2071 13.8942C31.9225 13.823 31.6378 14.1077 31.5667 14.5347C31.6378 14.4635 31.5667 14.4635 31.5667 14.5347Z" fill="#542713"/>
<path d="M31.282 13.7518C31.282 14.0364 31.4955 14.2499 31.7802 14.2499C32.0648 14.2499 32.2783 14.0364 32.2783 13.7518C32.2783 13.4672 32.0648 13.2537 31.7802 13.2537C31.4955 13.2537 31.282 13.4672 31.282 13.7518Z" fill="white"/>
<path d="M31.7802 17.7368C32.9188 17.7368 34.0574 17.3099 34.9113 16.5271C33.6304 18.235 31.2109 18.5908 29.5031 17.3099C29.2184 17.0964 28.9338 16.8117 28.7203 16.5271C29.5031 17.3099 30.6416 17.7368 31.7802 17.7368Z" fill="#D69547"/>
<path d="M32.136 17.2386C33.0611 17.2386 33.9862 16.8116 34.6266 16.1711C33.6304 17.5944 31.6379 17.9502 30.2147 16.9539C29.93 16.7404 29.7165 16.527 29.5031 16.3135C30.2858 16.9539 31.2109 17.3097 32.136 17.2386Z" fill="#D69547"/>
<path d="M32.3494 25.8491C33.6303 26.2049 34.9824 26.4896 36.3344 26.703C37.5441 26.9165 38.6827 27.0589 39.6078 27.13C41.458 27.3435 42.6677 27.3435 42.6677 27.3435C42.6677 27.3435 41.5291 27.2012 39.679 26.9165C38.7539 26.7742 37.6153 26.5607 36.4056 26.3472C35.1958 26.1338 33.8438 25.778 32.4917 25.4222C31.2108 25.0664 29.9299 24.5682 28.7914 23.999C28.2932 23.7143 27.7951 23.4297 27.3682 23.0739C26.9412 22.7181 26.6566 22.3623 26.3719 21.8641C26.1584 21.5083 26.0873 21.0814 26.0873 20.6544V20.1563C26.0873 20.0851 26.0873 20.0139 26.1584 19.9428C26.2296 19.8716 26.2296 19.8005 26.2296 19.7293C26.3007 19.5158 26.3719 19.3735 26.4431 19.16L26.5142 18.9465L26.3719 19.16C26.2296 19.3023 26.1584 19.5158 26.0873 19.7293C26.0873 19.8005 26.0161 19.8716 26.0161 19.9428C26.0161 20.0139 25.9449 20.0851 25.9449 20.1563C25.9449 20.2274 25.8738 20.2986 25.8738 20.4409V20.7256C25.8026 21.1525 25.8738 21.5795 26.0873 22.0065C26.3007 22.5046 26.6566 22.9315 27.0124 23.3585C27.4393 23.7855 27.9374 24.1413 28.5067 24.4259C29.7876 24.9952 31.0685 25.4933 32.3494 25.8491Z" fill="#D6753E"/>
<mask id="mask0_47_3662" style="mask-type:luminance" maskUnits="userSpaceOnUse" x="35" y="12" width="9" height="7">
<path fill-rule="evenodd" clip-rule="evenodd" d="M35.9787 18.0926H43.0236L43.3082 12.3286L35.9787 13.823V18.0926Z" fill="white"/>
</mask>
<g mask="url(#mask0_47_3662)">
<path d="M36.121 14.4636C36.1922 15.8868 37.3307 17.0254 38.754 16.9542C39.1098 16.9542 39.3944 16.883 39.679 16.7407C40.6041 16.3138 41.2446 15.4598 41.2446 14.3924C41.2446 13.5385 40.8176 12.6846 40.106 12.1864C38.754 11.4037 37.1173 11.9018 36.3345 13.2539C36.3345 13.325 36.2633 13.325 36.2633 13.3962C36.1922 13.752 36.121 14.1078 36.121 14.4636Z" fill="#D6753E"/>
<path d="M36.1921 14.1789C36.1921 15.531 37.4018 16.6695 38.7539 16.5984C39.1097 16.5984 39.3943 16.5272 39.679 16.3849C40.6041 15.9579 41.1734 15.104 41.2445 14.1078C41.2445 13.2538 40.8176 12.4711 40.1059 11.9729C38.8251 11.2613 37.1884 11.6883 36.4767 12.9692C36.4767 13.0403 36.4056 13.1115 36.4056 13.1115C36.2633 13.4673 36.1921 13.8231 36.1921 14.1789Z" fill="#EDEDBB"/>
<path d="M38.8962 15.6734C39.4465 15.6734 39.8925 15.2274 39.8925 14.6772C39.8925 14.1269 39.4465 13.6809 38.8962 13.6809C38.346 13.6809 37.9 14.1269 37.9 14.6772C37.9 15.2274 38.346 15.6734 38.8962 15.6734Z" fill="#9E512B"/>
<path d="M38.1846 14.5347C38.1846 14.8905 38.4692 15.1751 38.825 15.1751C39.1808 15.1751 39.4655 14.8905 39.4655 14.5347C39.4655 14.1789 39.1808 13.8942 38.825 13.8942C38.5404 13.823 38.1846 14.1077 38.1846 14.5347Z" fill="#542713"/>
<path d="M39.252 17.5948C40.2483 17.7372 41.2445 17.4525 42.0984 16.8832C40.8176 18.2353 38.6827 18.3776 37.2595 17.0967C37.046 16.8832 36.8326 16.5986 36.6191 16.314C37.3307 17.0256 38.2558 17.5237 39.252 17.5948Z" fill="#D69547"/>
<path d="M37.9 13.752C37.9 14.0367 38.1135 14.2502 38.3981 14.2502C38.6827 14.2502 38.8962 14.0367 38.8962 13.752C38.8962 13.4674 38.6827 13.2539 38.3981 13.2539C38.1135 13.2539 37.9 13.4674 37.9 13.752Z" fill="white"/>
<path d="M39.4655 17.0966C40.3195 16.9542 41.0311 16.5985 41.6004 15.958C40.8176 17.3101 39.1097 17.8082 37.7577 17.0966C37.5442 16.9542 37.3307 16.8119 37.1172 16.5984C37.8288 17.0254 38.6828 17.2389 39.4655 17.0966Z" fill="#D69547"/>
</g>
<path d="M41.2445 10.9766C40.3194 12.8979 38.2557 14.0365 36.1209 13.6807C36.1921 13.6807 39.8213 12.7556 41.2445 10.9766Z" fill="#D69547"/>
<path d="M34.9112 11.4035C34.0573 10.9765 30.4993 9.26867 29.076 11.617C29.3607 10.763 30.0723 10.1226 30.9974 9.98026C32.4206 9.5533 33.9861 10.1226 34.9112 11.4035Z" fill="#D69547"/>
<path d="M25.1622 28.1261C24.5929 28.4819 23.0985 29.0512 23.6678 30.4745C23.8813 30.8303 24.0948 31.1149 24.4506 31.3995C24.9487 31.6842 24.5217 31.8977 24.2371 31.8265C23.9525 31.8265 20.4656 31.1149 22.1023 28.1261C22.3869 27.5569 23.739 26.4183 24.9487 26.6318C26.1584 26.8453 25.4468 27.9838 25.1622 28.1261Z" fill="url(#paint5_linear_47_3662)"/>
<path d="M48.3606 26.2761C48.3606 25.6357 48.4318 24.9952 48.7164 24.3548C48.9299 23.7855 49.2145 23.2874 49.6415 22.7892C50.0685 22.3623 50.5666 22.0065 51.1359 21.7218C51.7763 21.4372 52.4879 21.2949 53.1284 21.366C53.5553 21.366 54.0535 21.4372 54.4805 21.5084C54.9074 21.5795 55.2632 21.7218 55.6902 21.8642L55.1209 23.9278C54.8363 23.8567 54.5516 23.7855 54.3381 23.7144C53.9823 23.6432 53.6977 23.572 53.3419 23.6432C52.7014 23.572 52.061 23.8567 51.634 24.3548C51.2071 24.9241 50.9936 25.5645 51.0647 26.2761C50.9936 26.9877 51.2071 27.6282 51.634 28.1975C52.1322 28.6956 52.7726 28.9802 53.4842 28.9091C53.84 28.9091 54.1958 28.9091 54.4805 28.8379C54.8363 28.7668 55.1921 28.6956 55.4767 28.5533L55.8325 30.6881C55.4767 30.8304 55.0497 30.9727 54.6939 31.0439C54.1958 31.1151 53.6977 31.1862 53.1995 31.1862C52.4879 31.1862 51.7052 31.0439 50.9936 30.8304C50.4243 30.6169 49.9262 30.2611 49.4992 29.763C49.0722 29.336 48.7876 28.7668 48.6453 28.1975C48.4318 27.557 48.3606 26.9166 48.3606 26.2761Z" fill="#2A436F"/>
<path d="M66.2219 26.2762C66.2219 26.9878 66.1507 27.6282 65.9372 28.2687C65.7238 28.8379 65.4391 29.3361 65.0122 29.8342C64.5852 30.2612 64.1582 30.617 63.5889 30.8304C63.0197 31.0439 62.3792 31.1863 61.7388 31.1863C61.0983 31.1863 60.4579 31.0439 59.8886 30.8304C59.3193 30.617 58.8923 30.2612 58.4654 29.8342C58.0384 29.4072 57.7538 28.8379 57.5403 28.2687C57.3268 27.6282 57.1845 26.9878 57.1845 26.2762C57.1845 25.5646 57.3268 24.9241 57.5403 24.2837C57.7538 23.7144 58.1096 23.2162 58.4654 22.7893C58.8923 22.3623 59.3193 22.0065 59.8886 21.793C61.0271 21.2949 62.3792 21.2949 63.5178 21.793C64.0871 22.0065 64.514 22.3623 64.941 22.7893C65.368 23.2162 65.6526 23.7855 65.8661 24.2837C66.1507 24.9241 66.2219 25.6357 66.2219 26.2762ZM63.5889 26.2762C63.6601 25.6357 63.4466 24.9241 63.0908 24.3548C62.5215 23.572 61.4541 23.4297 60.6714 23.999C60.529 24.0702 60.4579 24.2125 60.3155 24.3548C59.9597 24.9241 59.8174 25.5646 59.8174 26.2762C59.7463 26.9878 59.9597 27.6282 60.3155 28.1975C60.6002 28.6956 61.1695 28.9091 61.7388 28.9091C62.308 28.9091 62.8062 28.6956 63.0908 28.1975C63.4466 27.6282 63.6601 26.9878 63.5889 26.2762Z" fill="#2A436F"/>
<path d="M71.559 19.0177C71.559 19.4447 71.4167 19.8716 71.132 20.1563C70.8474 20.4409 70.4204 20.5832 69.9935 20.5832C69.5665 20.5832 69.2107 20.4409 68.9261 20.1563C68.6414 19.8716 68.4279 19.4447 68.4991 19.0177C68.4991 18.5907 68.6414 18.1638 68.9972 17.8791C69.6377 17.3098 70.5628 17.3098 71.2032 17.8791C71.4167 18.1638 71.6302 18.5907 71.559 19.0177ZM71.3455 30.9727H68.7126V21.7218H71.3455V30.9727Z" fill="#2A436F"/>
<path d="M74.2631 22.0064C75.544 21.6506 76.896 21.5083 78.1769 21.5083C78.8174 21.5083 79.529 21.5795 80.1694 21.7929C80.6675 22.0064 81.0945 22.2911 81.3792 22.6469C81.6638 23.0738 81.8773 23.5008 82.0196 23.9989C82.1619 24.5682 82.2331 25.1375 82.2331 25.7068V30.9015H79.6001V25.9914C79.6713 25.351 79.529 24.7817 79.2443 24.2124C78.9597 23.8566 78.4616 23.6431 77.9635 23.7143H77.3942L76.8249 23.7855V30.9015H74.1919L74.2631 22.0064Z" fill="#2A436F"/>
<path d="M91.9821 23.5007L91.1282 24.4258C90.7724 24.8528 90.4166 25.2797 89.9896 25.7778C89.5627 26.276 89.1357 26.7741 88.7087 27.2722C88.2817 27.7704 87.926 28.3396 87.5702 28.8378H92.0533V31.0437H84.3679V29.4782C84.6526 28.9801 84.9372 28.5531 85.2218 28.1261L86.2892 26.6318C86.6451 26.1337 87.072 25.6355 87.4278 25.2086C87.7836 24.7816 88.1394 24.3546 88.4952 23.9277H84.5814V21.7217H91.9109V23.5007H91.9821Z" fill="#2A436F"/>
<path d="M97.1057 19.0177C97.1057 19.4447 96.9634 19.8716 96.6076 20.1563C96.3229 20.4409 95.896 20.5832 95.5402 20.5832C95.1132 20.5832 94.7574 20.4409 94.4728 20.1563C94.1881 19.8716 93.9746 19.4447 93.9746 19.0177C93.9746 18.5907 94.1169 18.1638 94.4728 17.8791C95.1132 17.3098 96.0383 17.3098 96.6787 17.8791C96.9634 18.1638 97.1057 18.5907 97.1057 19.0177ZM96.8211 30.9727H94.1881V21.7218H96.8211V30.9727Z" fill="#2A436F"/>
<path d="M103.439 31.1151C102.799 31.1151 102.158 31.044 101.589 30.8305C101.162 30.6882 100.806 30.4747 100.45 30.19C100.166 29.9054 99.9521 29.5496 99.8809 29.1938C99.8098 28.7668 99.7386 28.3398 99.7386 27.8417V17.6657L102.372 17.2388V27.2724C102.372 27.4859 102.372 27.6994 102.443 27.9129C102.443 28.0552 102.514 28.2687 102.656 28.411C102.799 28.5533 102.941 28.6957 103.083 28.6957C103.297 28.7668 103.581 28.838 103.866 28.838L103.439 31.1151Z" fill="#2A436F"/>
<path d="M109.416 31.1151C108.776 31.1151 108.136 31.044 107.566 30.8305C107.139 30.6882 106.784 30.4747 106.428 30.19C106.143 29.9054 105.93 29.5496 105.858 29.1938C105.787 28.7668 105.716 28.3398 105.716 27.8417V17.6657L108.349 17.2388V27.2724C108.349 27.4859 108.349 27.6994 108.42 27.9129C108.42 28.0552 108.491 28.2687 108.634 28.411C108.776 28.5533 108.918 28.6957 109.061 28.6957C109.274 28.7668 109.559 28.838 109.843 28.838L109.416 31.1151Z" fill="#2A436F"/>
<path d="M115.323 21.5083C115.963 21.5083 116.604 21.5795 117.244 21.7929C117.742 21.9353 118.169 22.2199 118.454 22.5757C118.739 22.9315 119.023 23.3585 119.094 23.7855C119.237 24.2836 119.308 24.8529 119.308 25.351V30.7592C118.952 30.8304 118.383 30.9015 117.742 31.0438C116.96 31.1862 116.106 31.2573 115.323 31.1862C114.754 31.1862 114.255 31.115 113.686 31.0438C113.259 30.9727 112.832 30.7592 112.405 30.5457C112.049 30.3322 111.765 29.9764 111.622 29.6206C111.409 29.1937 111.338 28.6955 111.338 28.1974C111.338 27.6993 111.409 27.2723 111.694 26.8454C111.907 26.4896 112.192 26.2049 112.548 25.9203C112.903 25.7068 113.33 25.5645 113.828 25.4221C114.327 25.351 114.825 25.2798 115.323 25.2798C115.607 25.2798 115.892 25.2798 116.248 25.351C116.461 25.351 116.675 25.4221 116.888 25.4933V25.2798C116.888 24.8528 116.746 24.497 116.461 24.2124C116.034 23.9278 115.536 23.7855 115.038 23.7855C114.611 23.7855 114.184 23.7854 113.686 23.8566C113.33 23.9278 112.903 23.9989 112.548 24.1413L112.192 22.0064L112.761 21.8641C112.975 21.7929 113.259 21.7929 113.544 21.7218C113.828 21.6506 114.113 21.6506 114.398 21.6506C114.682 21.6506 115.038 21.5083 115.323 21.5083ZM115.536 29.1225H116.248C116.461 29.1225 116.604 29.1225 116.817 29.0513V27.0588C116.675 27.0588 116.533 26.9877 116.319 26.9877H115.75C115.536 26.9877 115.252 26.9877 115.038 27.0588C114.825 27.0588 114.682 27.13 114.469 27.2012C114.327 27.2723 114.184 27.4146 114.113 27.557C113.828 28.0551 113.971 28.6244 114.398 28.909C114.754 29.1225 115.109 29.1937 115.536 29.1225Z" fill="#2A436F"/>
<defs>
<linearGradient id="paint0_linear_47_3662" x1="23.2579" y1="22.5586" x2="22.9661" y2="24.5938" gradientUnits="userSpaceOnUse">
<stop stop-color="#EA8632"/>
<stop offset="1" stop-color="#D6721E"/>
</linearGradient>
<linearGradient id="paint1_linear_47_3662" x1="23.4166" y1="28.1384" x2="22.983" y2="30.0313" gradientUnits="userSpaceOnUse">
<stop stop-color="#EA8632"/>
<stop offset="1" stop-color="#D6721E"/>
</linearGradient>
<linearGradient id="paint2_linear_47_3662" x1="23.7931" y1="15.6604" x2="22.775" y2="18.6349" gradientUnits="userSpaceOnUse">
<stop stop-color="#EA8632"/>
<stop offset="1" stop-color="#D6721E"/>
</linearGradient>
<linearGradient id="paint3_linear_47_3662" x1="34.2928" y1="31.85" x2="35.0364" y2="26.7038" gradientUnits="userSpaceOnUse">
<stop stop-color="#D69547"/>
<stop offset="1" stop-color="#CC6806"/>
</linearGradient>
<linearGradient id="paint4_linear_47_3662" x1="32.6312" y1="17.8022" x2="29.2372" y2="29.437" gradientUnits="userSpaceOnUse">
<stop stop-color="#F0CD59"/>
<stop offset="1" stop-color="#F7931A"/>
</linearGradient>
<linearGradient id="paint5_linear_47_3662" x1="25.6461" y1="42.692" x2="24.9178" y2="37.5421" gradientUnits="userSpaceOnUse">
<stop stop-color="#D69547"/>
<stop offset="1" stop-color="#CC6806"/>
</linearGradient>
</defs>
</svg>
