<svg width="32" height="32" viewBox="0 0 32 32" fill="none" xmlns="http://www.w3.org/2000/svg">
<path fill-rule="evenodd" clip-rule="evenodd" d="M26.2669 5.15831C26.5769 5.03032 26.9153 4.98705 27.2475 5.03291C27.5798 5.07878 27.8938 5.21214 28.1575 5.41933C28.4213 5.62652 28.6252 5.9001 28.7484 6.21203C28.8716 6.52397 28.9096 6.86304 28.8586 7.19452C28.1237 11.9738 26.7764 20.7316 26.0612 25.3804C26.0117 25.7021 25.88 26.0056 25.6789 26.2615C25.4779 26.5174 25.2142 26.7172 24.9133 26.8414C24.6125 26.9656 24.2847 27.0101 23.9616 26.9706C23.6386 26.931 23.3312 26.8088 23.0691 26.6158C20.539 24.7517 16.7457 21.9569 14.8198 20.5374C14.6712 20.4279 14.5484 20.2871 14.4602 20.1249C14.372 19.9627 14.3204 19.7831 14.3092 19.5989C14.2979 19.4146 14.3273 19.2301 14.3952 19.0584C14.463 18.8867 14.5678 18.732 14.702 18.6052C16.4668 16.9386 19.9816 13.6191 22.3999 11.335C22.4568 11.2809 22.4915 11.2075 22.4972 11.1291C22.5028 11.0507 22.4789 10.973 22.4303 10.9113C22.3816 10.8496 22.3117 10.8083 22.2342 10.7954C22.1567 10.7826 22.0771 10.7992 22.0112 10.8419C18.9105 12.8643 14.1617 15.9611 11.8342 17.479C11.3981 17.7635 10.9078 17.9548 10.3943 18.0411C9.88074 18.1274 9.35491 18.1067 8.84972 17.9803C7.56815 17.66 5.71961 17.1977 4.07456 16.7866C3.81701 16.7222 3.58633 16.5783 3.41538 16.3752C3.24443 16.1721 3.14192 15.9202 3.12247 15.6554C3.10302 15.3907 3.16761 15.1265 3.30703 14.9006C3.44646 14.6747 3.65362 14.4986 3.899 14.3972C9.62561 12.0319 20.8325 7.40325 26.2669 5.15831Z" fill="#491361"/>
</svg>
