<svg width="18" height="18" viewBox="0 0 18 18" fill="none" xmlns="http://www.w3.org/2000/svg">
<path d="M16.7769 4.49082C16.3472 4.90835 15.8768 5.31764 15.4613 5.7488C15.3473 5.86694 15.2357 6.04961 15.2336 6.20418C15.2184 7.32425 15.0115 8.38535 14.6447 9.35893C13.2535 13.0518 9.56192 15.4857 5.30567 15.1049C3.85343 14.975 2.46752 14.5647 1.21655 13.7904C2.8699 13.8918 4.40521 13.4964 5.83598 12.4846C4.3868 12.313 3.3922 11.6579 2.84739 10.3126H4.15378C2.73016 9.75834 1.83593 8.82765 1.73901 7.23408C2.29383 7.38038 2.80512 7.51522 3.32638 7.65287C2.40264 7.0415 1.84394 6.22895 1.77221 5.15409C1.73239 4.55754 1.8826 4.0065 2.19439 3.43715C3.98197 5.43113 6.17687 6.50021 8.77537 6.6623C8.81255 6.15422 8.78206 5.67943 8.89048 5.23877C9.45215 2.95655 12.2837 2.09226 14.1289 3.63183C14.3245 3.79499 14.4875 3.84693 14.7181 3.76092C15.2502 3.56246 15.7857 3.3731 16.3531 3.16805C16.1311 3.8301 15.6767 4.30347 15.1296 4.70811M16.7769 4.49082C16.7541 4.46353 16.7996 4.51808 16.7769 4.49082ZM16.7769 4.49082C16.159 4.48468 15.6337 4.5818 15.1296 4.70811M15.1296 4.70811C15.1181 4.68153 15.141 4.73469 15.1296 4.70811Z" stroke="#491361" stroke-width="2" stroke-linecap="round" stroke-linejoin="round"/>
</svg>
