<svg width="32" height="32" viewBox="0 0 32 32" fill="none" xmlns="http://www.w3.org/2000/svg">
<path d="M11.0234 26.383C20.8198 26.383 26.2531 18.0646 25.9229 10.7988C26.6487 10.2744 27.3048 9.65968 27.8754 8.96958C27.9187 8.91619 27.9435 8.85023 27.9461 8.78158C27.9487 8.71292 27.929 8.64526 27.89 8.58874C27.8509 8.53221 27.7946 8.48985 27.7295 8.46801C27.6643 8.44616 27.5938 8.44601 27.5286 8.46756C27.0979 8.60594 26.6589 8.71708 26.2142 8.80032C26.179 8.80656 26.1427 8.80078 26.1112 8.78392C26.0797 8.76705 26.0548 8.74007 26.0405 8.70733C26.0262 8.67459 26.0234 8.63799 26.0324 8.60342C26.0414 8.56885 26.0618 8.53832 26.0903 8.51674C26.6626 8.06392 27.1344 7.49685 27.4756 6.85166C27.5051 6.79286 27.5154 6.72627 27.505 6.66132C27.4946 6.59636 27.464 6.53631 27.4176 6.48965C27.3713 6.44299 27.3114 6.41208 27.2465 6.40129C27.1816 6.39049 27.115 6.40036 27.056 6.42949C26.2435 6.8166 25.3856 7.10006 24.5025 7.2732C23.7834 6.50665 22.8505 5.97397 21.8249 5.74433C20.7993 5.51468 19.7283 5.59867 18.751 5.9854C17.7737 6.37213 16.9352 7.04373 16.3445 7.91301C15.7537 8.78229 15.4379 9.80909 15.4381 10.8601C15.4395 11.1942 15.4709 11.5274 15.532 11.8558C15.5365 11.8797 15.5355 11.9043 15.5291 11.9278C15.5226 11.9512 15.5109 11.9729 15.4949 11.9911C15.4788 12.0094 15.4588 12.0237 15.4363 12.033C15.4138 12.0423 15.3896 12.0464 15.3653 12.0449C11.5731 11.8024 8.01781 10.1168 5.42974 7.33452C5.35496 7.25153 5.2596 7.18975 5.15329 7.15543C5.04698 7.1211 4.93349 7.11545 4.8243 7.13904C4.71511 7.16263 4.61407 7.21462 4.53141 7.28977C4.44875 7.36491 4.3874 7.46055 4.35354 7.567C3.99591 8.56214 3.95708 9.64395 4.24242 10.6622C4.52776 11.6804 5.12312 12.5845 5.94581 13.2488C5.9725 13.2702 5.99145 13.2997 5.99975 13.3329C6.00805 13.366 6.00524 13.401 5.99176 13.4324C5.97827 13.4638 5.95484 13.4899 5.92508 13.5067C5.89532 13.5235 5.86087 13.5301 5.82701 13.5254C5.52756 13.4846 5.23236 13.4171 4.94497 13.3236C4.84008 13.2885 4.72782 13.2816 4.61942 13.3036C4.51103 13.3255 4.41031 13.3756 4.32735 13.4488C4.24226 13.5203 4.17848 13.6138 4.143 13.7191C4.10751 13.8245 4.10169 13.9375 4.12616 14.0459C5.23622 18.3201 8.24256 17.7753 8.24256 18.0991C8.24256 18.3182 7.64793 18.3182 6.85084 18.3201C6.74296 18.3206 6.63702 18.3488 6.54318 18.402C6.44935 18.4553 6.37076 18.5317 6.31498 18.6241C6.25919 18.7164 6.22807 18.8215 6.2246 18.9293C6.22113 19.0372 6.24543 19.1441 6.29517 19.2398C6.71468 19.9611 7.29893 20.5729 8.00016 21.0251C8.70139 21.4774 9.4997 21.7572 10.3298 21.8419C10.3621 21.8443 10.3928 21.8566 10.4178 21.8771C10.4429 21.8976 10.461 21.9253 10.4698 21.9565C10.4786 21.9876 10.4776 22.0207 10.4669 22.0513C10.4563 22.0818 10.4365 22.1084 10.4103 22.1273C8.9603 23.1761 7.26543 23.8352 5.48786 24.0415C5.35025 24.0524 5.22023 24.109 5.1185 24.2023C5.01678 24.2956 4.94919 24.4203 4.92649 24.5565C4.9038 24.6926 4.92731 24.8325 4.99327 24.9538C5.05923 25.075 5.16386 25.1707 5.29051 25.2257C7.10432 25.9927 9.05411 26.3863 11.0234 26.383Z" fill="#491361"/>
</svg>
